<svg xmlns="http://www.w3.org/2000/svg" xmlns:svg="http://www.w3.org/2000/svg" xmlns:xlink="http://www.w3.org/1999/xlink" id="svg2" width="200" height="106.299" image-rendering="optimizeQuality" shape-rendering="geometricPrecision" text-rendering="geometricPrecision" version="1.0" viewBox="0 0 5000 3000" xml:space="preserve" style="fill-rule:evenodd"><metadata id="metadata247"/><defs id="defs245"><linearGradient id="linearGradient3355" x1="2713.61" x2="2290.18" y1="1999.7" y2="1999.7" gradientUnits="userSpaceOnUse"><stop id="stop3357" style="stop-color:#131516" offset="0"/><stop id="stop3359" style="stop-color:#eaebec" offset=".122"/><stop id="stop3361" style="stop-color:#d7d9dc" offset=".2"/><stop id="stop3363" style="stop-color:#d7d9dc" offset=".8"/><stop id="stop3365" style="stop-color:#eaebec" offset=".878"/><stop id="stop112" style="stop-color:#131516" offset="1"/><stop id="stop114" style="stop-color:#131516" offset="1"/></linearGradient><linearGradient id="linearGradient3345" x1="2693.92" x2="2627.74" y1="2019.15" y2="2019.15" gradientUnits="userSpaceOnUse"><stop id="stop3347" style="stop-color:#373d40" offset="0"/><stop id="stop3349" style="stop-color:#eaebec" offset=".502"/><stop id="stop3351" style="stop-color:#373d40" offset="1"/><stop id="stop3353" style="stop-color:#373d40" offset="1"/></linearGradient><linearGradient id="linearGradient3343" x1="307.882" x2="2847.24" y1="264.756" y2="264.756" gradientUnits="userSpaceOnUse" href="#id6"/><linearGradient id="linearGradient3333" x1="307.882" x2="2847.24" y1="1900.59" y2="1900.59" gradientUnits="userSpaceOnUse"><stop id="stop3335" style="stop-color:#272c2e" offset="0"/><stop id="stop79" style="stop-color:#545a5e" offset=".051"/><stop id="stop81" style="stop-color:#53595c" offset=".11"/><stop id="stop83" style="stop-color:#53595c" offset=".902"/><stop id="stop85" style="stop-color:#272c2e" offset=".969"/><stop id="stop87" style="stop-color:#212426" offset="1"/><stop id="stop89" style="stop-color:#212426" offset="1"/></linearGradient><linearGradient id="linearGradient3321" x1="196.858" x2="3278.55" y1="1082.68" y2="1082.68" gradientUnits="userSpaceOnUse"><stop id="stop62" style="stop-color:#272c2e" offset="0"/><stop id="stop64" style="stop-color:#545a5e" offset=".051"/><stop id="stop3325" style="stop-color:#373d40" offset=".11"/><stop id="stop3327" style="stop-color:#373d40" offset=".812"/><stop id="stop3329" style="stop-color:#2d3234" offset=".91"/><stop id="stop72" style="stop-color:#33393c" offset="1"/><stop id="stop74" style="stop-color:#33393c" offset="1"/></linearGradient><linearGradient id="linearGradient3313" x1="196.854" x2="248.539" y1="1082.68" y2="1082.68" gradientUnits="userSpaceOnUse"><stop id="stop53" style="stop-color:#262a2c" offset="0"/><stop id="stop55" style="stop-color:#c9cbce" offset=".38"/><stop id="stop3317" style="stop-color:#c1c2c6" offset="1"/><stop id="stop3319" style="stop-color:#c1c2c6" offset="1"/></linearGradient><linearGradient id="linearGradient3300" x1="622.697" x2="2478.05" y1="1586.79" y2="1749.36" gradientUnits="userSpaceOnUse"><stop id="stop36" style="stop-color:#6886ad" offset="0"/><stop id="stop38" style="stop-color:#59bac3" offset=".239"/><stop id="stop40" style="stop-color:#909397" offset=".412"/><stop id="stop42" style="stop-color:#909397" offset=".541"/><stop id="stop44" style="stop-color:#cd86b0" offset=".651"/><stop id="stop3307" style="stop-color:#e36544" offset=".8"/><stop id="stop3309" style="stop-color:#eded87" offset="1"/><stop id="stop3311" style="stop-color:#eded87" offset="1"/></linearGradient><linearGradient id="linearGradient3288" x1="2153.02" x2="2153.02" y1="130.335" y2="177.224" gradientUnits="userSpaceOnUse"><stop id="stop3290" style="stop-color:#131516" offset="0"/><stop id="stop3292" style="stop-color:#424550" offset=".071"/><stop id="stop3294" style="stop-color:#868a8e" offset=".259"/><stop id="stop27" style="stop-color:#5a5d67" offset=".439"/><stop id="stop29" style="stop-color:#303439" offset=".522"/><stop id="stop31" style="stop-color:#575c62" offset="1"/><stop id="stop33" style="stop-color:#575c62" offset="1"/></linearGradient><linearGradient id="linearGradient3286" x1="2446.87" x2="2446.87" y1="130.335" y2="177.224" gradientUnits="userSpaceOnUse" href="#id0"/><linearGradient id="linearGradient3279" x1="1859.12" x2="1859.12" y1="130.335" y2="177.224" gradientUnits="userSpaceOnUse"><stop id="stop9" style="stop-color:#575d60" offset="0"/><stop id="stop11" style="stop-color:#989b9f" offset=".071"/><stop id="stop13" style="stop-color:#ededef" offset=".259"/><stop id="stop15" style="stop-color:#767c80" offset="1"/><stop id="stop17" style="stop-color:#767c80" offset="1"/></linearGradient><style id="style6" type="text/css"/><marker style="overflow:visible" id="Arrow1Mstart" orient="auto" refX="0" refY="0"><path transform="matrix(0.4,0,0,0.4,4,0)" style="fill-rule:evenodd;stroke:#000;stroke-width:1pt;marker-start:none" id="path3447" d="M 0,0 L 5,-5 L -12.5,0 L 5,5 L 0,0 z"/></marker><marker style="overflow:visible" id="Arrow1Lstart" orient="auto" refX="0" refY="0"><path transform="matrix(0.8,0,0,0.8,10,0)" style="fill-rule:evenodd;stroke:#000;stroke-width:1pt;marker-start:none" id="path3441" d="M 0,0 L 5,-5 L -12.5,0 L 5,5 L 0,0 z"/></marker><marker style="overflow:visible" id="Arrow2Mend" orient="auto" refX="0" refY="0"><path id="path3468" d="M 8.7185878,4.0337352 L -2.2072895,0.016013256 L 8.7185884,-4.0017078 C 6.97309,-1.6296469 6.9831476,1.6157441 8.7185878,4.0337352 z" transform="scale(-0.6,-0.6)" style="font-size:12px;fill-rule:evenodd;stroke-width:.625;stroke-linejoin:round"/></marker><marker style="overflow:visible" id="Arrow1Lend" orient="auto" refX="0" refY="0"><path transform="matrix(-0.8,0,0,-0.8,-10,0)" style="fill-rule:evenodd;stroke:#000;stroke-width:1pt;marker-start:none" id="path3444" d="M 0,0 L 5,-5 L -12.5,0 L 5,5 L 0,0 z"/></marker><linearGradient id="id77" x1="18392.5" x2="17317" y1="4848.19" y2="4848.19" gradientUnits="userSpaceOnUse"><stop id="stop9246" offset="0" stop-color="#000"/><stop id="stop9248" offset=".122" stop-color="#E8E8E8"/><stop id="stop9250" offset=".2" stop-color="#D6D6D6"/><stop id="stop9252" offset=".8" stop-color="#D6D6D6"/><stop id="stop9254" offset=".878" stop-color="#E8E8E8"/><stop id="stop9256" offset="1" stop-color="#000"/><stop id="stop9258" offset="1" stop-color="#000"/></linearGradient><linearGradient id="id76" x1="13081.6" x2="17794.199" y1="3799.41" y2="4212.33" gradientUnits="userSpaceOnUse"><stop id="stop9229" offset="0" stop-color="#6D84AB"/><stop id="stop9231" offset=".239" stop-color="#74EEF7"/><stop id="stop9233" offset=".412" stop-color="#919191"/><stop id="stop9235" offset=".541" stop-color="#919191"/><stop id="stop9237" offset=".651" stop-color="#F7A7E8"/><stop id="stop9239" offset=".8" stop-color="#FF7154"/><stop id="stop9241" offset="1" stop-color="#F3F592"/><stop id="stop9243" offset="1" stop-color="#F3F592"/></linearGradient><linearGradient id="id75" x1="12282" x2="18732" y1="4596.46" y2="4596.46" gradientUnits="userSpaceOnUse"><stop id="stop9214" offset="0" stop-color="#1F1F1F"/><stop id="stop9216" offset=".051" stop-color="#545454"/><stop id="stop9218" offset=".11" stop-color="#525252"/><stop id="stop9220" offset=".902" stop-color="#525252"/><stop id="stop9222" offset=".969" stop-color="#1F1F1F"/><stop id="stop9224" offset="1" stop-color="#171717"/><stop id="stop9226" offset="1" stop-color="#171717"/></linearGradient><linearGradient id="id74" x1="12282" x2="18732" y1="441.44" y2="441.44" gradientUnits="userSpaceOnUse"><stop id="stop9199" offset="0" stop-color="#1F1F1F"/><stop id="stop9201" offset=".051" stop-color="#545454"/><stop id="stop9203" offset=".11" stop-color="#525252"/><stop id="stop9205" offset=".902" stop-color="#525252"/><stop id="stop9207" offset=".969" stop-color="#1F1F1F"/><stop id="stop9209" offset="1" stop-color="#171717"/><stop id="stop9211" offset="1" stop-color="#171717"/></linearGradient><linearGradient id="id73" x1="12000" x2="19827.5" y1="2518.96" y2="2518.96" gradientUnits="userSpaceOnUse"><stop id="stop9184" offset="0" stop-color="#1F1F1F"/><stop id="stop9186" offset=".051" stop-color="#545454"/><stop id="stop9188" offset=".11" stop-color="#333"/><stop id="stop9190" offset=".812" stop-color="#333"/><stop id="stop9192" offset=".91" stop-color="#262626"/><stop id="stop9194" offset="1" stop-color="#2E2E2E"/><stop id="stop9196" offset="1" stop-color="#2E2E2E"/></linearGradient><linearGradient id="id72" x1="12000" x2="12131.3" y1="2518.96" y2="2518.96" gradientUnits="userSpaceOnUse"><stop id="stop9175" offset="0" stop-color="#1D1D1D"/><stop id="stop9177" offset=".38" stop-color="#C9C9C9"/><stop id="stop9179" offset="1" stop-color="#C1C1C1"/><stop id="stop9181" offset="1" stop-color="#C1C1C1"/></linearGradient><linearGradient id="id71" x1="16222.2" x2="16222.2" y1="100.01" y2="219.11" gradientUnits="userSpaceOnUse"><stop id="stop9164" offset="0" stop-color="#575757"/><stop id="stop9166" offset=".071" stop-color="#999"/><stop id="stop9168" offset=".259" stop-color="#EBEBEB"/><stop id="stop9170" offset="1" stop-color="#787878"/><stop id="stop9172" offset="1" stop-color="#787878"/></linearGradient><linearGradient id="id70" x1="16968.6" x2="16968.6" y1="100.01" y2="219.11" gradientUnits="userSpaceOnUse"><stop id="stop9149" offset="0" stop-color="#000"/><stop id="stop9151" offset=".071" stop-color="#3E3C45"/><stop id="stop9153" offset=".259" stop-color="#878787"/><stop id="stop9155" offset=".439" stop-color="#59575E"/><stop id="stop9157" offset=".522" stop-color="#2A292B"/><stop id="stop9159" offset="1" stop-color="#575659"/><stop id="stop9161" offset="1" stop-color="#575659"/></linearGradient><linearGradient id="id69" x1="17715" x2="17715" y1="100.01" y2="219.11" gradientUnits="userSpaceOnUse"><stop id="stop9138" offset="0" stop-color="#575757"/><stop id="stop9140" offset=".071" stop-color="#999"/><stop id="stop9142" offset=".259" stop-color="#EBEBEB"/><stop id="stop9144" offset="1" stop-color="#787878"/><stop id="stop9146" offset="1" stop-color="#787878"/></linearGradient><linearGradient id="id68" x1="18342.5" x2="18174.4" y1="4897.6" y2="4897.6" gradientUnits="userSpaceOnUse"><stop id="stop9129" offset="0" stop-color="#333"/><stop id="stop9131" offset=".502" stop-color="#E8E8E8"/><stop id="stop9133" offset="1" stop-color="#333"/><stop id="stop9135" offset="1" stop-color="#333"/></linearGradient><linearGradient id="id67" x1="20239" x2="20239" y1="1623.76" y2="2044.28" gradientUnits="userSpaceOnUse"><stop id="stop9120" offset="0" stop-color="#363636"/><stop id="stop9122" offset=".502" stop-color="#757575"/><stop id="stop9124" offset="1" stop-color="#121212"/><stop id="stop9126" offset="1" stop-color="#121212"/></linearGradient><linearGradient id="id66" x1="20817.9" x2="20817.9" y1="1623.76" y2="2044.28" gradientUnits="userSpaceOnUse"><stop id="stop9111" offset="0" stop-color="#363636"/><stop id="stop9113" offset=".502" stop-color="#757575"/><stop id="stop9115" offset="1" stop-color="#121212"/><stop id="stop9117" offset="1" stop-color="#121212"/></linearGradient><linearGradient id="id65" x1="21396.801" x2="21396.801" y1="1623.76" y2="2044.28" gradientUnits="userSpaceOnUse"><stop id="stop9102" offset="0" stop-color="#363636"/><stop id="stop9104" offset=".502" stop-color="#757575"/><stop id="stop9106" offset="1" stop-color="#121212"/><stop id="stop9108" offset="1" stop-color="#121212"/></linearGradient><linearGradient id="id64" x1="20817" x2="20817" y1="1372.17" y2="2295.43" gradientUnits="userSpaceOnUse"><stop id="stop9093" offset="0" stop-color="#363636"/><stop id="stop9095" offset=".502" stop-color="#757575"/><stop id="stop9097" offset="1" stop-color="#121212"/><stop id="stop9099" offset="1" stop-color="#121212"/></linearGradient><linearGradient id="id63" x1="22016.5" x2="22016.5" y1="1623.76" y2="2044.28" gradientUnits="userSpaceOnUse"><stop id="stop9084" offset="0" stop-color="#363636"/><stop id="stop9086" offset=".502" stop-color="#757575"/><stop id="stop9088" offset="1" stop-color="#121212"/><stop id="stop9090" offset="1" stop-color="#121212"/></linearGradient><defs id="defs20994"><linearGradient id="linearGradient21296" x1="8853.54" x2="8853.54" y1="2200.06" y2="1885.16" gradientUnits="userSpaceOnUse"><stop id="stop20997" offset="0" stop-color="#333"/><stop id="stop20999" offset=".502" stop-color="#E8E8E8"/><stop id="stop21001" offset="1" stop-color="#333"/><stop id="stop21003" offset="1" stop-color="#333"/></linearGradient><linearGradient id="linearGradient21302" x1="8851.3" x2="8851.3" y1="6171.49" y2="5950.11" gradientUnits="userSpaceOnUse"><stop id="stop21006" offset="0" stop-color="#333"/><stop id="stop21008" offset=".502" stop-color="#E8E8E8"/><stop id="stop21010" offset="1" stop-color="#333"/><stop id="stop21012" offset="1" stop-color="#333"/></linearGradient><linearGradient id="linearGradient21308" x1="8754.96" x2="8754.96" y1="6612.89" y2="5508.69" gradientUnits="userSpaceOnUse"><stop id="stop21015" offset="0" stop-color="#000"/><stop id="stop21017" offset=".122" stop-color="#E8E8E8"/><stop id="stop21019" offset=".2" stop-color="#D6D6D6"/><stop id="stop21021" offset=".8" stop-color="#D6D6D6"/><stop id="stop21023" offset=".878" stop-color="#E8E8E8"/><stop id="stop21025" offset="1" stop-color="#000"/><stop id="stop21027" offset="1" stop-color="#000"/></linearGradient><linearGradient id="linearGradient21317" x1="8754.96" x2="8754.96" y1="4799.72" y2="3695.52" gradientUnits="userSpaceOnUse"><stop id="stop21030" offset="0" stop-color="#000"/><stop id="stop21032" offset=".122" stop-color="#E8E8E8"/><stop id="stop21034" offset=".2" stop-color="#D6D6D6"/><stop id="stop21036" offset=".8" stop-color="#D6D6D6"/><stop id="stop21038" offset=".878" stop-color="#E8E8E8"/><stop id="stop21040" offset="1" stop-color="#000"/><stop id="stop21042" offset="1" stop-color="#000"/></linearGradient><linearGradient id="linearGradient21326" x1="4379.49" x2="4379.49" y1="99.98" y2="487.38" gradientUnits="userSpaceOnUse"><stop id="stop21045" offset="0" stop-color="#000"/><stop id="stop21047" offset=".38" stop-color="#5E5E5E"/><stop id="stop21049" offset="1" stop-color="#C1C1C1"/><stop id="stop21051" offset="1" stop-color="#C1C1C1"/></linearGradient><linearGradient id="linearGradient21332" x1="4403.7" x2="4403.7" y1="14749.1" y2="217.86" gradientUnits="userSpaceOnUse"><stop id="stop21054" offset="0" stop-color="#EDEFF1"/><stop id="stop21056" offset=".922" stop-color="#F9F9F9"/><stop id="stop21058" offset=".961" stop-color="#EDEEF1"/><stop id="stop21060" offset="1" stop-color="#000"/><stop id="stop21062" offset="1" stop-color="#000"/></linearGradient></defs><defs id="defs11264"><linearGradient id="linearGradient11510" x1="8853.54" x2="8853.54" y1="2200.06" y2="1885.16" gradientUnits="userSpaceOnUse"><stop id="stop11267" offset="0" stop-color="#333"/><stop id="stop11269" offset=".502" stop-color="#E8E8E8"/><stop id="stop11271" offset="1" stop-color="#333"/><stop id="stop11273" offset="1" stop-color="#333"/></linearGradient><linearGradient id="linearGradient11516" x1="8851.3" x2="8851.3" y1="6171.49" y2="5950.11" gradientUnits="userSpaceOnUse"><stop id="stop11276" offset="0" stop-color="#333"/><stop id="stop11278" offset=".502" stop-color="#E8E8E8"/><stop id="stop11280" offset="1" stop-color="#333"/><stop id="stop11282" offset="1" stop-color="#333"/></linearGradient><linearGradient id="linearGradient11522" x1="8754.96" x2="8754.96" y1="6612.89" y2="5508.69" gradientUnits="userSpaceOnUse"><stop id="stop11285" offset="0" stop-color="#000"/><stop id="stop11287" offset=".122" stop-color="#E8E8E8"/><stop id="stop11289" offset=".2" stop-color="#D6D6D6"/><stop id="stop11291" offset=".8" stop-color="#D6D6D6"/><stop id="stop11293" offset=".878" stop-color="#E8E8E8"/><stop id="stop11295" offset="1" stop-color="#000"/><stop id="stop11297" offset="1" stop-color="#000"/></linearGradient><linearGradient id="linearGradient11531" x1="8754.96" x2="8754.96" y1="4799.72" y2="3695.52" gradientUnits="userSpaceOnUse"><stop id="stop11300" offset="0" stop-color="#000"/><stop id="stop11302" offset=".122" stop-color="#E8E8E8"/><stop id="stop11304" offset=".2" stop-color="#D6D6D6"/><stop id="stop11306" offset=".8" stop-color="#D6D6D6"/><stop id="stop11308" offset=".878" stop-color="#E8E8E8"/><stop id="stop11310" offset="1" stop-color="#000"/><stop id="stop11312" offset="1" stop-color="#000"/></linearGradient><linearGradient id="linearGradient11540" x1="4379.49" x2="4379.49" y1="99.98" y2="487.38" gradientUnits="userSpaceOnUse"><stop id="stop11315" offset="0" stop-color="#000"/><stop id="stop11317" offset=".38" stop-color="#5E5E5E"/><stop id="stop11319" offset="1" stop-color="#C1C1C1"/><stop id="stop11321" offset="1" stop-color="#C1C1C1"/></linearGradient><linearGradient id="linearGradient11546" x1="4403.7" x2="4403.7" y1="14749.1" y2="217.86" gradientUnits="userSpaceOnUse"><stop id="stop11324" offset="0" stop-color="#EDEFF1"/><stop id="stop11326" offset=".922" stop-color="#F9F9F9"/><stop id="stop11328" offset=".961" stop-color="#EDEEF1"/><stop id="stop11330" offset="1" stop-color="#000"/><stop id="stop11332" offset="1" stop-color="#000"/></linearGradient></defs><defs id="defs5"><linearGradient id="linearGradient4341" x1="8754.94" x2="8754.94" y1="6612.93" y2="5508.73" gradientUnits="userSpaceOnUse"><stop id="stop8" offset="0" stop-color="#000"/><stop id="stop4800" offset=".122" stop-color="#E8E8E8"/><stop id="stop4802" offset=".2" stop-color="#D6D6D6"/><stop id="stop4804" offset=".8" stop-color="#D6D6D6"/><stop id="stop4806" offset=".878" stop-color="#E8E8E8"/><stop id="stop18" offset="1" stop-color="#000"/><stop id="stop20" offset="1" stop-color="#000"/></linearGradient><linearGradient id="linearGradient4350" x1="8754.94" x2="8754.94" y1="4799.76" y2="3695.56" gradientUnits="userSpaceOnUse"><stop id="stop4811" offset="0" stop-color="#000"/><stop id="stop4813" offset=".122" stop-color="#E8E8E8"/><stop id="stop4815" offset=".2" stop-color="#D6D6D6"/><stop id="stop4817" offset=".8" stop-color="#D6D6D6"/><stop id="stop4819" offset=".878" stop-color="#E8E8E8"/><stop id="stop4821" offset="1" stop-color="#000"/><stop id="stop35" offset="1" stop-color="#000"/></linearGradient><linearGradient id="linearGradient4359" x1="8754.94" x2="8754.94" y1="2750.85" y2="1334.45" gradientUnits="userSpaceOnUse"><stop id="stop4825" offset="0" stop-color="#000"/><stop id="stop4827" offset=".122" stop-color="#E8E8E8"/><stop id="stop4829" offset=".2" stop-color="#D6D6D6"/><stop id="stop4831" offset=".8" stop-color="#D6D6D6"/><stop id="stop4833" offset=".878" stop-color="#E8E8E8"/><stop id="stop4835" offset="1" stop-color="#000"/><stop id="stop4837" offset="1" stop-color="#000"/></linearGradient><linearGradient id="linearGradient4368" x1="8851.28" x2="8851.28" y1="2153.34" y2="1931.96" gradientUnits="userSpaceOnUse"><stop id="stop4840" offset="0" stop-color="#333"/><stop id="stop4842" offset=".502" stop-color="#E8E8E8"/><stop id="stop4844" offset="1" stop-color="#333"/><stop id="stop4846" offset="1" stop-color="#333"/></linearGradient><linearGradient id="linearGradient4374" x1="4403.66" x2="4403.66" y1="100.02" y2="334.16" gradientUnits="userSpaceOnUse"><stop id="stop4849" offset="0" stop-color="#1D1D1D" style="stop-color:black;stop-opacity:1"/><stop id="stop4851" offset=".38" stop-color="#C9C9C9" style="stop-color:#5e5e5e;stop-opacity:1"/><stop id="stop4853" offset="1" stop-color="#C1C1C1" style="stop-color:#505050;stop-opacity:1"/><stop id="stop4855" offset="1" stop-color="#C1C1C1"/></linearGradient><radialGradient id="radialGradient4380" cx="6822.755" cy="8098.932" r="1686.5" fx="6822.755" fy="8098.932" gradientUnits="userSpaceOnUse"><stop id="stop71" offset="0" stop-color="#FFF" style="stop-color:black;stop-opacity:1"/><stop id="stop4859" offset=".621" stop-color="#474747" style="stop-color:#ececec;stop-opacity:1"/><stop id="stop4861" offset=".651" stop-color="#1C1C1C" style="stop-color:#e0e0e4;stop-opacity:1"/><stop id="stop4863" offset=".678" stop-color="#000" style="stop-color:#c5c5c6;stop-opacity:1"/><stop style="stop-color:#a4a4a9;stop-opacity:1" id="stop8458" offset=".781" stop-color="#000"/><stop id="stop4866" offset="1" stop-color="#171717" style="stop-color:#d5d5d5;stop-opacity:1"/><stop id="stop4868" offset="1" stop-color="#171717" style="stop-color:#dadada;stop-opacity:1"/></radialGradient><linearGradient id="linearGradient4870" x1="4403.65" x2="4403.65" y1="7309.49" y2="215.97" gradientTransform="matrix(1,0,0,0.991702,0,1.792085)" gradientUnits="userSpaceOnUse"><stop id="stop4872" offset="0" stop-color="#333" style="stop-color:#edeff1;stop-opacity:1"/><stop id="stop4874" offset=".89" stop-color="#333" style="stop-color:#edeef1;stop-opacity:1"/><stop id="stop4876" offset=".922" stop-color="#3D3D3D" style="stop-color:#f9f9f9;stop-opacity:1"/><stop id="stop90" offset="1" stop-color="#000" style="stop-color:#696969;stop-opacity:1"/><stop id="stop92" offset="1" stop-color="#000"/></linearGradient><linearGradient id="linearGradient4880" x1="4403.65" x2="4403.65" y1="7309.48" y2="10255.4" gradientTransform="matrix(1,0,0,1.022848,0,-234.3214)" gradientUnits="userSpaceOnUse" spreadMethod="reflect" xlink:href="#id8"><stop id="stop4882" offset="0" stop-color="#333" style="stop-color:#edeff1;stop-opacity:1"/><stop id="stop4884" offset=".47" stop-color="#171717" style="stop-color:#a8a8a8;stop-opacity:1"/><stop id="stop4886" offset=".557" stop-color="#000" style="stop-color:#a5a5a5;stop-opacity:1"/><stop id="stop101" offset=".939" stop-color="#171717" style="stop-color:#e1e2e5;stop-opacity:1"/><stop id="stop103" offset="1" stop-color="#171717" style="stop-color:#e1e2e5;stop-opacity:1"/></linearGradient><linearGradient id="linearGradient4890" x1="8254.42" x2="8254.42" y1="215.97" y2="10255.5" gradientUnits="userSpaceOnUse"><stop id="stop4892" offset="0" stop-color="#1F1F1F"/><stop id="stop4894" offset=".051" stop-color="#545454"/><stop id="stop4896" offset=".11" stop-color="#525252"/><stop id="stop4898" offset=".71" stop-color="#525252"/><stop id="stop4900" offset=".871" stop-color="#1F1F1F"/><stop id="stop116" offset="1" stop-color="#171717"/><stop id="stop118" offset="1" stop-color="#171717"/></linearGradient><linearGradient id="linearGradient4904" x1="552.88" x2="552.88" y1="215.97" y2="10255.5" gradientUnits="userSpaceOnUse"><stop id="stop4906" offset="0" stop-color="#1F1F1F" style="stop-color:#a8a8a8;stop-opacity:1"/><stop id="stop123" offset=".051" stop-color="#545454" style="stop-color:#efefef;stop-opacity:1"/><stop id="stop125" offset=".11" stop-color="#525252" style="stop-color:#f6f8fb;stop-opacity:1"/><stop id="stop127" offset=".71" stop-color="#525252" style="stop-color:#f6f7fb;stop-opacity:1"/><stop id="stop129" offset=".871" stop-color="#1F1F1F" style="stop-color:#dbdce3;stop-opacity:1"/><stop id="stop131" offset="1" stop-color="#171717" style="stop-color:#e1e2e5;stop-opacity:1"/><stop id="stop133" offset="1" stop-color="#171717" style="stop-color:#e1e2e5;stop-opacity:1"/></linearGradient><radialGradient id="radialGradient4914" cx="6822.75" cy="8094.82" r="517.62" fx="6822.75" fy="8094.82" gradientUnits="userSpaceOnUse"><stop id="stop136" offset="0" stop-color="#9B9B9B"/><stop id="stop138" offset=".678" stop-color="#999"/><stop id="stop140" offset="1" stop-color="#292929"/><stop id="stop142" offset="1" stop-color="#292929"/></radialGradient><linearGradient id="linearGradient4920" x1="1582.64" x2="1884.64" y1="5720.06" y2="2267.08" gradientUnits="userSpaceOnUse"><stop id="stop145" offset="0" stop-color="#8091AD" style="stop-color:#8192ae;stop-opacity:1"/><stop id="stop147" offset=".239" stop-color="#B4E9ED"/><stop id="stop149" offset=".412" stop-color="#D4D4D4"/><stop id="stop151" offset=".541" stop-color="#DEDEDE"/><stop id="stop153" offset=".651" stop-color="#F0D1EA"/><stop id="stop155" offset=".8" stop-color="#F59F8E"/><stop id="stop157" offset="1" stop-color="#F6F7D2"/></linearGradient></defs><defs id="defs5585"><linearGradient id="linearGradient5618" x1="1653.44" x2="1944.9" y1="5662.77" y2="2330.49" gradientUnits="userSpaceOnUse"><stop id="stop5588" offset="0" stop-color="#8091AD"/><stop id="stop5590" offset=".239" stop-color="#B4E9ED"/><stop id="stop5592" offset=".412" stop-color="#D4D4D4"/><stop id="stop5594" offset=".541" stop-color="#DEDEDE"/><stop id="stop5596" offset=".651" stop-color="#F0D1EA"/><stop id="stop5598" offset=".8" stop-color="#F59F8E"/><stop id="stop5600" offset="1" stop-color="#F6F7D2"/><stop id="stop5602" offset="1" stop-color="#F6F7D2"/></linearGradient></defs><defs id="defs2457"><linearGradient id="linearGradient4744" x1="8754.96" x2="8754.96" y1="6612.89" y2="5508.69" gradientUnits="userSpaceOnUse"><stop id="stop2460" offset="0" stop-color="#000"/><stop id="stop2462" offset=".122" stop-color="#E8E8E8"/><stop id="stop2464" offset=".2" stop-color="#D6D6D6"/><stop id="stop2466" offset=".8" stop-color="#D6D6D6"/><stop id="stop2468" offset=".878" stop-color="#E8E8E8"/><stop id="stop2470" offset="1" stop-color="#000"/><stop id="stop2472" offset="1" stop-color="#000"/></linearGradient><linearGradient id="linearGradient4753" x1="8754.96" x2="8754.96" y1="4799.72" y2="3695.52" gradientUnits="userSpaceOnUse"><stop id="stop2475" offset="0" stop-color="#000"/><stop id="stop2477" offset=".122" stop-color="#E8E8E8"/><stop id="stop2479" offset=".2" stop-color="#D6D6D6"/><stop id="stop2481" offset=".8" stop-color="#D6D6D6"/><stop id="stop2483" offset=".878" stop-color="#E8E8E8"/><stop id="stop2485" offset="1" stop-color="#000"/><stop id="stop2487" offset="1" stop-color="#000"/></linearGradient><linearGradient id="linearGradient4762" x1="8851.3" x2="8851.3" y1="6171.49" y2="5950.11" gradientUnits="userSpaceOnUse"><stop id="stop2490" offset="0" stop-color="#333"/><stop id="stop2492" offset=".502" stop-color="#E8E8E8"/><stop id="stop2494" offset="1" stop-color="#333"/><stop id="stop2496" offset="1" stop-color="#333"/></linearGradient><linearGradient id="linearGradient4768" x1="4379.49" x2="4379.49" y1="99.98" y2="487.38" gradientUnits="userSpaceOnUse"><stop id="stop2499" offset="0" stop-color="#000"/><stop id="stop2501" offset=".38" stop-color="#5E5E5E"/><stop id="stop2503" offset="1" stop-color="#C1C1C1"/><stop id="stop2505" offset="1" stop-color="#C1C1C1"/></linearGradient><linearGradient id="linearGradient4774" x1="4403.7" x2="4403.7" y1="14749.1" y2="217.86" gradientUnits="userSpaceOnUse"><stop id="stop2508" offset="0" stop-color="#EDEFF1"/><stop id="stop2510" offset=".922" stop-color="#F9F9F9"/><stop id="stop2512" offset=".961" stop-color="#EDEEF1"/><stop id="stop2514" offset="1" stop-color="#000"/><stop id="stop2516" offset="1" stop-color="#000"/></linearGradient><linearGradient id="linearGradient4781" x1="8853.54" x2="8853.54" y1="2200.06" y2="1885.16" gradientUnits="userSpaceOnUse"><stop id="stop2519" offset="0" stop-color="#333"/><stop id="stop2521" offset=".502" stop-color="#E8E8E8"/><stop id="stop2523" offset="1" stop-color="#333"/><stop id="stop2525" offset="1" stop-color="#333"/></linearGradient></defs><linearGradient id="linearGradient8801"><stop id="stop8803" offset="0" style="stop-color:#9c9fa1;stop-opacity:1"/><stop style="stop-color:#797c7e;stop-opacity:1" id="stop13009" offset=".966"/><stop style="stop-color:#e6e7e7;stop-opacity:1" id="stop13007" offset=".985"/><stop id="stop8805" offset="1" style="stop-color:#464a4d;stop-opacity:1"/></linearGradient><linearGradient id="linearGradient13988" x1="4379.49" x2="4379.49" y1="99.98" y2="487.38" gradientUnits="userSpaceOnUse"><stop style="stop-color:#000;stop-opacity:1" id="stop13990" offset="0" stop-color="#000"/><stop style="stop-color:#000;stop-opacity:1" id="stop13992" offset=".215" stop-color="#5E5E5E"/><stop style="stop-color:#848484;stop-opacity:1" id="stop13994" offset=".611" stop-color="#C1C1C1"/><stop style="stop-color:#000;stop-opacity:1" id="stop13996" offset="1" stop-color="#C1C1C1"/></linearGradient><linearGradient id="linearGradient14972"><stop id="stop14974" offset="0" style="stop-color:#790707;stop-opacity:1"/><stop style="stop-color:#f36060;stop-opacity:1" id="stop14980" offset=".935"/><stop id="stop14976" offset="1" style="stop-color:#b91a1a;stop-opacity:1"/></linearGradient><linearGradient id="linearGradient17958" x1="4403.65" x2="4403.65" y1="7309.49" y2="215.97" gradientTransform="matrix(1,0,0,0.991702,0,1.792085)" gradientUnits="userSpaceOnUse"><stop style="stop-color:#adadad;stop-opacity:1" id="stop17960" offset="0" stop-color="#333"/><stop style="stop-color:#edeef1;stop-opacity:1" id="stop17962" offset=".615" stop-color="#333"/><stop id="stop18939" offset=".871" stop-color="#333" style="stop-color:#f3f3f5;stop-opacity:1"/><stop style="stop-color:#434343;stop-opacity:1" id="stop17964" offset="1" stop-color="#3D3D3D"/></linearGradient><marker style="overflow:visible" id="marker4721" orient="auto" refX="0" refY="0"><path transform="matrix(0.4,0,0,0.4,4,0)" style="fill-rule:evenodd;stroke:#000;stroke-width:1pt;marker-start:none" id="path25353" d="M 0,0 L 5,-5 L -12.5,0 L 5,5 L 0,0 z"/></marker><marker style="overflow:visible" id="marker4718" orient="auto" refX="0" refY="0"><path transform="matrix(-0.8,0,0,-0.8,-10,0)" style="fill-rule:evenodd;stroke:#000;stroke-width:1pt;marker-start:none" id="path25350" d="M 0,0 L 5,-5 L -12.5,0 L 5,5 L 0,0 z"/></marker><marker style="overflow:visible" id="Arrow1Mend" orient="auto" refX="0" refY="0"><path transform="matrix(-0.4,0,0,-0.4,-4,0)" style="fill-rule:evenodd;stroke:#000;stroke-width:1pt;marker-start:none" id="path25356" d="M 0,0 L 5,-5 L -12.5,0 L 5,5 L 0,0 z"/></marker><marker style="overflow:visible" id="Dot_l" orient="auto" refX="0" refY="0"><path transform="matrix(0.8,0,0,0.8,5.92,0.8)" style="fill-rule:evenodd;stroke:#000;stroke-width:1pt;marker-start:none;marker-end:none" id="path25409" d="M -2.5,-1 C -2.5,1.76 -4.74,4 -7.5,4 C -10.26,4 -12.5,1.76 -12.5,-1 C -12.5,-3.76 -10.26,-6 -7.5,-6 C -4.74,-6 -2.5,-3.76 -2.5,-1 z"/></marker><marker style="overflow:visible" id="StopL" orient="auto" refX="0" refY="0"><path transform="scale(0.8,0.8)" style="fill:none;fill-opacity:.75;fill-rule:evenodd;stroke:#000;stroke-width:1pt" id="path25454" d="M 0,5.65 L 0,-5.65"/></marker><marker style="overflow:visible" id="DiamondS" orient="auto" refX="0" refY="0"><path transform="scale(0.2,0.2)" style="fill-rule:evenodd;stroke:#000;stroke-width:1pt;marker-start:none" id="path25433" d="M 0,-7.0710768 L -7.0710894,0 L 0,7.0710589 L 7.0710462,0 L 0,-7.0710768 z"/></marker><marker style="overflow:visible" id="DiamondL" orient="auto" refX="0" refY="0"><path transform="scale(0.8,0.8)" style="fill-rule:evenodd;stroke:#000;stroke-width:1pt;marker-start:none" id="path25427" d="M 0,-7.0710768 L -7.0710894,0 L 0,7.0710589 L 7.0710462,0 L 0,-7.0710768 z"/></marker><marker style="overflow:visible" id="SquareL" orient="auto" refX="0" refY="0"><path transform="scale(0.8,0.8)" style="fill-rule:evenodd;stroke:#000;stroke-width:1pt;marker-start:none" id="path25418" d="M -5,-5 L -5,5 L 5,5 L 5,-5 L -5,-5 z"/></marker><linearGradient id="linearGradient5454" x1="991.96" x2="991.96" y1="2143.13" y2="2092.07" gradientUnits="userSpaceOnUse" xlink:href="#id8"/></defs><g id="layer1" style="display:inline"><g style="fill-rule:evenodd" id="Ebene_x0020_1" transform="translate(-9.5314312e-6,-189.06213)"><g id="g5"><defs id="defs7"><linearGradient id="id0" x1="4460.36" x2="4451.16" y1="1140.14" y2="1306.9" gradientUnits="userSpaceOnUse"><stop id="stop10" offset="0" stop-color="#363636"/><stop id="stop12" offset=".502" stop-color="#757575"/><stop id="stop14" offset="1" stop-color="#121212"/><stop id="stop16" offset="1" stop-color="#121212"/></linearGradient><linearGradient id="id1" x1="4092.21" x2="4073.75" y1="1021.97" y2="1358.46" gradientUnits="userSpaceOnUse"><stop id="stop19" offset="0" stop-color="#363636"/><stop id="stop21" offset=".502" stop-color="#757575"/><stop id="stop23" offset="1" stop-color="#121212"/><stop id="stop25" offset="1" stop-color="#121212"/></linearGradient><linearGradient id="id2" x1="4159.86" x2="4152.22" y1="1135.38" y2="1277.18" gradientUnits="userSpaceOnUse"><stop id="stop28" offset="0" stop-color="#363636"/><stop id="stop30" offset=".502" stop-color="#757575"/><stop id="stop32" offset="1" stop-color="#121212"/><stop id="stop34" offset="1" stop-color="#121212"/></linearGradient><linearGradient id="id3" x1="4012.41" x2="4004.79" y1="1126.95" y2="1268.75" gradientUnits="userSpaceOnUse"><stop id="stop37" offset="0" stop-color="#363636"/><stop id="stop39" offset=".502" stop-color="#757575"/><stop id="stop41" offset="1" stop-color="#121212"/><stop id="stop43" offset="1" stop-color="#121212"/></linearGradient><linearGradient id="id4" x1="1473.36" x2="1473.36" y1="2181.75" y2="2143.13" gradientUnits="userSpaceOnUse"><stop id="stop46" offset="0" stop-color="#575757"/><stop id="stop48" offset=".071" stop-color="#999"/><stop id="stop50" offset=".259" stop-color="#EBEBEB"/><stop id="stop52" offset="1" stop-color="#787878"/><stop id="stop54" offset="1" stop-color="#787878"/></linearGradient><radialGradient id="id5" cx="3379.1" cy="1500" r="643.13" fx="3379.1" fy="1500" gradientUnits="userSpaceOnUse"><stop id="stop57" offset="0" stop-color="#3B3B3B"/><stop id="stop59" offset=".929" stop-color="#3B3B3B"/><stop id="stop61" offset="1" stop-color="#000"/><stop id="stop63" offset="1" stop-color="#000"/></radialGradient><linearGradient id="id6" x1="2214.03" x2="2214.03" y1="2143.13" y2="2092.49" gradientUnits="userSpaceOnUse"><stop id="stop66" offset="0" stop-color="#000"/><stop id="stop68" offset="1" stop-color="#3B3B3B"/><stop id="stop70" offset="1" stop-color="#3B3B3B"/></linearGradient><linearGradient id="id7" x1="2214.03" x2="2214.03" y1="856.87" y2="907.51" gradientUnits="userSpaceOnUse"><stop id="stop73" offset="0" stop-color="#000"/><stop id="stop75" offset="1" stop-color="#3B3B3B"/><stop id="stop77" offset="1" stop-color="#3B3B3B"/></linearGradient><linearGradient id="id8" x1="991.96" x2="991.96" y1="2143.13" y2="2092.07" gradientUnits="userSpaceOnUse"><stop id="stop80" offset="0" stop-color="#000"/><stop id="stop82" offset=".2" stop-color="#818181"/><stop id="stop84" offset=".749" stop-color="#E3E3E3"/><stop id="stop86" offset="1" stop-color="#E3E3E3"/><stop id="stop88" offset="1" stop-color="#E3E3E3"/></linearGradient><linearGradient id="id9" x1="816.53" x2="1048.09" y1="1500" y2="1500" gradientUnits="userSpaceOnUse"><stop id="stop91" offset="0" stop-color="#000"/><stop id="stop93" offset=".09" stop-color="#818181"/><stop id="stop95" offset=".522" stop-color="#E3E3E3"/><stop id="stop97" offset="1" stop-color="#E3E3E3"/><stop id="stop99" offset="1" stop-color="#E3E3E3"/></linearGradient><linearGradient id="id10" x1="991.96" x2="991.96" y1="856.87" y2="907.93" gradientUnits="userSpaceOnUse"><stop id="stop102" offset="0" stop-color="#000"/><stop id="stop104" offset=".2" stop-color="#818181"/><stop id="stop106" offset=".749" stop-color="#E3E3E3"/><stop id="stop108" offset="1" stop-color="#E3E3E3"/><stop id="stop110" offset="1" stop-color="#E3E3E3"/></linearGradient><radialGradient id="id11" cx="3379.09" cy="1502.71" r="212.44" fx="3379.09" fy="1502.71" gradientUnits="userSpaceOnUse"><stop id="stop113" offset="0" stop-color="#E8E8E8"/><stop id="stop115" offset=".902" stop-color="#B5B5B5"/><stop id="stop117" offset=".949" stop-color="#C1C1C1"/><stop id="stop119" offset="1" stop-color="#8F8F8F"/><stop id="stop121" offset="1" stop-color="#8F8F8F"/></radialGradient><radialGradient id="id12" cx="3099.05" cy="1207.93" r="153.86" fx="3099.05" fy="1207.93" gradientUnits="userSpaceOnUse"><stop id="stop124" offset="0" stop-color="#E8E8E8"/><stop id="stop126" offset=".902" stop-color="#B5B5B5"/><stop id="stop128" offset=".949" stop-color="#C1C1C1"/><stop id="stop130" offset="1" stop-color="#8F8F8F"/><stop id="stop132" offset="1" stop-color="#8F8F8F"/></radialGradient><linearGradient id="id13" x1="873.29" x2="993.31" y1="1522.14" y2="1522.14" gradientUnits="userSpaceOnUse"><stop id="stop135" offset="0" stop-color="#9C9C9C"/><stop id="stop137" offset=".369" stop-color="#C8C8C8"/><stop id="stop139" offset="1" stop-color="#D6D6D6"/><stop id="stop141" offset="1" stop-color="#D6D6D6"/></linearGradient><linearGradient id="id14" x1="1321.61" x2="2467.53" y1="1821.09" y2="1921.07" gradientUnits="userSpaceOnUse"><stop id="stop144" offset="0" stop-color="#6D84AB"/><stop id="stop146" offset=".239" stop-color="#74EEF7"/><stop id="stop148" offset=".412" stop-color="#DEDEDE"/><stop id="stop150" offset=".541" stop-color="#DEDEDE"/><stop id="stop152" offset=".651" stop-color="#F7A7E8"/><stop id="stop154" offset=".8" stop-color="#FF7154"/><stop id="stop156" offset="1" stop-color="#F3F592"/><stop id="stop158" offset="1" stop-color="#F3F592"/></linearGradient></defs><path id="path160" d="M 4575.7,1298.64 L 4328.03,1284.48 L 4335.8,1148.39 L 4583.48,1162.54 L 4575.7,1298.64 L 4575.7,1298.64 z" style="fill:url(#id0);stroke:#000;stroke-width:7.21000004;stroke-linejoin:bevel"/><path id="path162" d="M 4339.12,1090.61 L 4253.78,1081.9 L 4250.27,1143.5 L 4217.03,1141.6 L 4220.63,1078.51 L 4106.73,1066.88 L 4102.83,1135.08 L 4069.6,1133.18 L 4073.58,1063.5 L 3959.67,1051.86 L 3955.4,1126.65 L 3922.17,1124.75 L 3926.52,1048.48 L 3826.84,1038.29 C 3846.77,1057.63 3865.43,1078.23 3882.71,1099.98 C 3882.97,1101.22 3883.23,1102.46 3883.5,1103.7 C 3938.29,1172.95 3978.23,1252.74 4000.83,1338.1 L 4057.85,1338.81 L 4061.82,1269.27 L 4095.05,1271.17 L 4091.17,1339.22 L 4205.65,1340.64 L 4209.25,1277.7 L 4242.49,1279.6 L 4238.97,1341.05 L 4324.75,1342.12 L 4339.12,1090.61 L 4339.12,1090.61 L 4339.12,1090.61 L 4339.12,1090.61 z" style="fill:url(#id1);stroke:#000;stroke-width:7.21000004;stroke-linejoin:bevel"/><path id="path164" d="M 4168.75,1275.38 L 4176.53,1139.29 L 4143.29,1137.39 L 4135.52,1273.49 L 4168.75,1275.38 L 4168.75,1275.38 z" style="fill:url(#id2);stroke:#000;stroke-width:7.21000004;stroke-linejoin:bevel"/><path id="path166" d="M 4021.32,1266.96 L 4029.1,1130.86 L 3995.86,1128.96 L 3988.08,1265.06 L 4021.32,1266.96 z" style="fill:url(#id3);stroke:#000;stroke-width:7.21000004;stroke-linejoin:bevel"/><path id="path168" d="M 2765.49,2209.11 L 2756.21,2197.01 C 2755.52,2196.11 2754.51,2195.51 2753.39,2195.32 C 2748.41,2194.5 2743.44,2193.55 2738.49,2192.48 C 2737.32,2192.22 2736.3,2191.51 2735.66,2190.49 L 2732,2184.69 C 2730.74,2182.69 2728.13,2182.02 2726.06,2183.18 L 2720.06,2186.51 C 2719.02,2187.09 2717.78,2187.23 2716.63,2186.89 C 2711.82,2185.47 2707.04,2183.94 2702.3,2182.28 C 2701.17,2181.89 2700.24,2181.06 2699.74,2179.97 L 2696.81,2173.77 C 2695.8,2171.62 2693.3,2170.65 2691.1,2171.53 L 2684.74,2174.12 C 2683.63,2174.56 2682.39,2174.55 2681.29,2174.08 C 2676.69,2172.08 2672.13,2169.97 2667.63,2167.75 C 2666.56,2167.22 2665.74,2166.28 2665.37,2165.14 L 2663.22,2158.63 C 2662.48,2156.38 2660.1,2155.1 2657.82,2155.71 L 2651.2,2157.5 C 2650.04,2157.81 2648.8,2157.65 2647.77,2157.04 C 2643.45,2154.5 2639.18,2151.85 2634.99,2149.1 C 2633.99,2148.44 2633.29,2147.41 2633.06,2146.23 L 2632.44,2143.13 L 2974.78,2143.13 L 2974.17,2146.23 C 2973.94,2147.41 2973.24,2148.44 2972.24,2149.1 C 2968.04,2151.85 2963.78,2154.5 2959.45,2157.04 C 2958.42,2157.65 2957.19,2157.81 2956.03,2157.5 L 2949.41,2155.71 C 2947.12,2155.1 2944.75,2156.38 2944.01,2158.63 L 2941.86,2165.14 C 2941.49,2166.28 2940.67,2167.22 2939.59,2167.75 C 2935.09,2169.97 2930.54,2172.08 2925.94,2174.08 C 2924.84,2174.55 2923.59,2174.56 2922.48,2174.12 L 2916.13,2171.53 C 2913.93,2170.65 2911.42,2171.62 2910.41,2173.77 L 2907.48,2179.97 C 2906.98,2181.06 2906.05,2181.89 2904.92,2182.28 C 2900.18,2183.94 2895.4,2185.47 2890.59,2186.89 C 2889.44,2187.23 2888.21,2187.09 2887.16,2186.51 L 2881.17,2183.18 C 2879.09,2182.02 2876.49,2182.69 2875.22,2184.69 L 2871.56,2190.49 C 2870.92,2191.51 2869.9,2192.22 2868.73,2192.48 C 2863.79,2193.55 2858.82,2194.5 2853.83,2195.32 C 2852.71,2195.51 2851.71,2196.11 2851.02,2197.01 L 2841.73,2209.11 C 2840.88,2210.21 2839.58,2210.85 2838.19,2210.85 L 2769.03,2210.85 C 2767.65,2210.85 2766.34,2210.21 2765.49,2209.11 L 2765.49,2209.11 L 2765.49,2209.11 L 2765.49,2209.11 z" style="fill:#333;stroke:#000;stroke-width:6.01000023;stroke-linejoin:bevel"/><path id="path170" d="M 1410.28,2143.13 L 1410.28,2172.81 C 1410.28,2177.74 1414.27,2181.74 1419.2,2181.74 L 1475.25,2181.74 C 1499.23,2175.68 1520.65,2162.16 1536.44,2143.13 L 1410.28,2143.13 L 1410.28,2143.13 L 1410.28,2143.13 z" style="fill:url(#id4);stroke:#000;stroke-width:6.01000023;stroke-linejoin:bevel"/><path id="path172" d="M 2765.49,790.89 L 2756.21,802.99 C 2755.52,803.89 2754.51,804.5 2753.39,804.68 C 2748.41,805.5 2743.44,806.45 2738.49,807.52 C 2737.32,807.78 2736.3,808.49 2735.66,809.5 L 2732,815.31 C 2730.74,817.31 2728.13,817.98 2726.06,816.82 L 2720.06,813.49 C 2719.02,812.91 2717.78,812.77 2716.63,813.11 C 2711.82,814.53 2707.04,816.06 2702.3,817.72 C 2701.17,818.11 2700.24,818.94 2699.74,820.03 L 2696.81,826.23 C 2695.8,828.38 2693.3,829.36 2691.1,828.47 L 2684.74,825.89 C 2683.63,825.44 2682.39,825.45 2681.29,825.93 C 2676.69,827.92 2672.13,830.03 2667.63,832.25 C 2666.56,832.78 2665.74,833.72 2665.37,834.86 L 2663.22,841.37 C 2662.48,843.62 2660.1,844.9 2657.82,844.28 L 2651.2,842.5 C 2650.04,842.19 2648.8,842.35 2647.77,842.96 C 2643.45,845.5 2639.18,848.15 2634.99,850.9 C 2633.99,851.56 2633.29,852.59 2633.06,853.77 L 2632.44,856.87 L 2974.78,856.87 L 2974.17,853.77 C 2973.94,852.59 2973.24,851.56 2972.24,850.9 C 2968.04,848.15 2963.78,845.5 2959.45,842.96 C 2958.42,842.35 2957.19,842.19 2956.03,842.5 L 2949.41,844.28 C 2947.12,844.9 2944.75,843.62 2944.01,841.37 L 2941.86,834.86 C 2941.49,833.72 2940.67,832.78 2939.59,832.25 C 2935.09,830.03 2930.54,827.92 2925.94,825.93 C 2924.84,825.45 2923.59,825.44 2922.48,825.89 L 2916.13,828.47 C 2913.93,829.36 2911.42,828.38 2910.41,826.23 L 2907.48,820.03 C 2906.98,818.94 2906.05,818.11 2904.92,817.72 C 2900.18,816.06 2895.4,814.53 2890.59,813.11 C 2889.44,812.77 2888.21,812.91 2887.16,813.49 L 2881.17,816.82 C 2879.09,817.98 2876.49,817.31 2875.22,815.31 L 2871.56,809.5 C 2870.92,808.49 2869.9,807.78 2868.73,807.52 C 2863.79,806.45 2858.82,805.5 2853.83,804.68 C 2852.71,804.5 2851.71,803.89 2851.02,802.99 L 2841.73,790.89 C 2840.88,789.79 2839.58,789.15 2838.19,789.15 L 2769.03,789.15 C 2767.65,789.15 2766.34,789.79 2765.49,790.89 L 2765.49,790.89 L 2765.49,790.89 L 2765.49,790.89 z" style="fill:#333;stroke:#000;stroke-width:6.01000023;stroke-linejoin:bevel"/><path id="path174" d="M 1796.58,790.89 L 1787.3,802.99 C 1786.61,803.89 1785.6,804.5 1784.48,804.68 C 1779.49,805.5 1774.53,806.45 1769.58,807.52 C 1768.41,807.78 1767.39,808.49 1766.75,809.5 L 1763.09,815.31 C 1761.83,817.31 1759.22,817.98 1757.15,816.82 L 1751.15,813.49 C 1750.11,812.91 1748.87,812.77 1747.72,813.11 C 1742.91,814.53 1738.13,816.06 1733.39,817.72 C 1732.26,818.11 1731.34,818.94 1730.82,820.03 L 1727.9,826.23 C 1726.89,828.38 1724.38,829.36 1722.18,828.47 L 1715.83,825.89 C 1714.72,825.44 1713.47,825.45 1712.37,825.93 C 1707.77,827.92 1703.22,830.03 1698.71,832.25 C 1697.64,832.78 1696.83,833.72 1696.45,834.86 L 1694.31,841.37 C 1693.57,843.62 1691.19,844.9 1688.91,844.28 L 1682.28,842.5 C 1681.12,842.19 1679.89,842.35 1678.86,842.96 C 1674.53,845.5 1670.27,848.15 1666.07,850.9 C 1665.07,851.56 1664.37,852.59 1664.14,853.77 L 1663.53,856.87 L 2005.87,856.87 L 2005.26,853.77 C 2005.03,852.59 2004.33,851.56 2003.33,850.9 C 1999.13,848.15 1994.87,845.5 1990.54,842.96 C 1989.51,842.35 1988.28,842.19 1987.12,842.5 L 1980.5,844.28 C 1978.21,844.9 1975.84,843.62 1975.1,841.37 L 1972.95,834.86 C 1972.58,833.72 1971.76,832.78 1970.69,832.25 C 1966.18,830.03 1961.63,827.92 1957.03,825.93 C 1955.93,825.45 1954.68,825.44 1953.57,825.89 L 1947.22,828.47 C 1945.02,829.36 1942.51,828.38 1941.5,826.23 L 1938.58,820.03 C 1938.06,818.94 1937.14,818.11 1936.01,817.72 C 1931.27,816.06 1926.5,814.53 1921.68,813.11 C 1920.53,812.77 1919.3,812.91 1918.25,813.49 L 1912.25,816.82 C 1910.18,817.98 1907.57,817.31 1906.31,815.31 L 1902.65,809.5 C 1902.01,808.49 1900.99,807.78 1899.82,807.52 C 1894.88,806.45 1889.91,805.5 1884.92,804.68 C 1883.8,804.5 1882.79,803.89 1882.1,802.99 L 1872.82,790.89 C 1871.97,789.79 1870.66,789.15 1869.28,789.15 L 1800.12,789.15 C 1798.74,789.15 1797.43,789.79 1796.58,790.89 L 1796.58,790.89 L 1796.58,790.89 L 1796.58,790.89 z" style="fill:#333;stroke:#000;stroke-width:6.01000023;stroke-linejoin:bevel"/><path id="path176" d="M 4022.23,1500 C 4022.23,1144.81 3734.3,856.87 3379.1,856.87 C 3023.91,856.87 2735.97,1144.81 2735.97,1500 C 2735.97,1855.19 3023.91,2143.13 3379.1,2143.13 C 3734.3,2143.13 4022.23,1855.19 4022.23,1500 L 4022.23,1500 L 4022.23,1500 z" style="fill:url(#id5)"/><path id="path178" d="M 1151.72,2143.13 L 1050.99,2093.3 C 1050.35,2092.93 1049.67,2092.65 1048.96,2092.49 C 1049.23,2092.56 1049.5,2092.6 1049.78,2092.6 L 3379.1,2092.6 L 3379.1,2143.13 L 1151.72,2143.13 L 1151.72,2143.13 L 1151.72,2143.13 L 1151.72,2143.13 z" style="fill:url(#id6)"/><path id="path180" d="M 1151.72,856.87 L 1050.99,906.7 C 1050.35,907.07 1049.67,907.34 1048.96,907.51 C 1049.23,907.44 1049.5,907.4 1049.78,907.4 L 3379.1,907.4 L 3379.1,856.87 L 1151.72,856.87 L 1151.72,856.87 L 1151.72,856.87 L 1151.72,856.87 z" style="fill:url(#id7)"/><path id="path182" d="M 3379.1,2092.6 L 1049.78,2092.6 C 1048.98,2092.6 1048.21,2092.28 1047.64,2091.71 C 1047.07,2091.14 1046.75,2090.37 1046.75,2089.57 L 1046.75,910.43 C 1046.75,909.63 1047.07,908.86 1047.64,908.29 C 1048.21,907.72 1048.98,907.4 1049.78,907.4 L 3379.1,907.4 C 3706.39,907.4 3971.7,1172.71 3971.7,1500 C 3971.7,1827.28 3706.39,2092.6 3379.1,2092.6 L 3379.1,2092.6 L 3379.1,2092.6 z" style="fill:#2b2b2b;stroke:#525252;stroke-width:14.02000046;stroke-linejoin:bevel"/><path id="path184" d="M 1050.05,2092.83 C 1049.75,2092.71 1049.44,2092.61 1049.13,2092.53 C 1048.75,2092.45 1048.39,2092.29 1048.08,2092.07 L 832.2,2127.42 C 842.25,2137.48 855.88,2143.13 870.1,2143.13 L 1151.72,2143.13 L 1050.05,2092.83 L 1050.05,2092.83 L 1050.05,2092.83 L 1050.05,2092.83 z" style="fill:url(#linearGradient5454)"/><path id="path186" d="M 1046.75,910.43 C 1046.75,909.43 1047.25,908.49 1048.08,907.93 L 832.2,872.58 C 822.17,882.62 816.53,896.23 816.53,910.43 L 816.53,2089.57 C 816.53,2103.77 822.17,2117.38 832.2,2127.42 L 1048.08,2092.07 C 1047.25,2091.51 1046.75,2090.57 1046.75,2089.57 L 1046.75,910.43 L 1046.75,910.43 L 1046.75,910.43 L 1046.75,910.43 z" style="fill:url(#id9)"/><path id="path188" d="M 1151.72,856.87 L 870.1,856.87 C 855.88,856.87 842.25,862.52 832.2,872.58 L 1048.08,907.93 C 1048.39,907.71 1048.75,907.55 1049.13,907.47 C 1049.44,907.39 1049.75,907.29 1050.05,907.16 L 1151.72,856.87 L 1151.72,856.87 L 1151.72,856.87 z" style="fill:url(#id10)"/><path id="path190" d="M 1031.76,2094.75 L 882.76,2119.15" style="fill:none;stroke:#e8e8e8;stroke-width:7.21000004;stroke-linecap:round;stroke-linejoin:bevel"/><path id="path192" d="M 1031.76,905.25 L 882.76,880.85" style="fill:none;stroke:#e8e8e8;stroke-width:7.21000004;stroke-linecap:round;stroke-linejoin:bevel"/><path id="path194" d="M 4018.43,1432.87 C 4005.25,1312.21 3958.19,1197.75 3882.69,1102.7 C 3907.41,1220.12 3953.41,1332.02 4018.43,1432.87 z" style="fill:#e8e8e8;stroke:#000;stroke-width:7.21000004;stroke-linejoin:bevel"/><path id="path196" d="M 4018.43,1572.58 C 4005.25,1693.24 3958.19,1807.71 3882.69,1902.75 C 3907.41,1785.34 3953.41,1673.43 4018.43,1572.58 z" style="fill:#e8e8e8;stroke:#000;stroke-width:7.21000004;stroke-linejoin:bevel"/><path id="path198" d="M 816.53,910.43 L 816.53,2089.57 C 816.53,2119.15 840.52,2143.13 870.1,2143.13 L 3379.1,2143.13 C 3575.25,2143.13 3760.68,2053.61 3882.69,1900.02 C 3907.41,1782.61 3953.41,1670.7 4018.43,1569.85 C 4023.5,1523.42 4023.5,1476.58 4018.43,1430.14 C 3953.41,1329.3 3907.41,1217.39 3882.69,1099.98 C 3760.68,946.38 3575.25,856.87 3379.1,856.87 L 870.1,856.87 C 855.89,856.87 842.27,862.51 832.22,872.56 C 822.18,882.6 816.53,896.23 816.53,910.43 L 816.53,910.43 L 816.53,910.43 L 816.53,910.43 z" style="fill:none;stroke:#000;stroke-width:7.21000004;stroke-linejoin:bevel"/><path id="path200" d="M 2667.5,1972.69 C 2661.15,1987.42 2646.65,1996.96 2630.61,1996.96 L 1225.58,1996.96 C 1214.93,1996.96 1204.71,1992.72 1197.17,1985.19 C 1189.64,1977.66 1185.41,1967.44 1185.41,1956.79 L 1185.41,1048.67 C 1185.41,1038.01 1189.64,1027.8 1197.17,1020.26 C 1204.71,1012.73 1214.93,1008.5 1225.58,1008.5 L 2630.61,1008.5 C 2646.65,1008.5 2661.15,1018.04 2667.5,1032.77 C 2796.8,1332.73 2796.8,1672.72 2667.5,1972.69 L 2667.5,1972.69 L 2667.5,1972.69 L 2667.5,1972.69 z" style="fill:#2b2b2b;stroke:#9e9e9e;stroke-width:6.01000023;stroke-linejoin:bevel"/><path id="path202" d="M 2647.01,1963.85 C 2644.18,1970.4 2637.74,1974.64 2630.61,1974.64 L 1225.58,1974.64 C 1220.84,1974.64 1216.3,1972.76 1212.95,1969.41 C 1209.61,1966.07 1207.73,1961.52 1207.73,1956.79 L 1207.73,1048.67 C 1207.73,1038.81 1215.72,1030.81 1225.58,1030.81 L 2630.61,1030.81 C 2637.74,1030.81 2644.18,1035.05 2647.01,1041.6 C 2773.87,1335.93 2773.87,1669.53 2647.01,1963.85 L 2647.01,1963.85 z" style="fill:#171717;stroke:#9e9e9e;stroke-width:6.01000023;stroke-linejoin:bevel"/><path id="path204" d="M 1299.75,1206.68 L 2491.66,1206.68 C 2496.59,1206.68 2500.58,1210.68 2500.58,1215.61 L 2500.58,1739.62 C 2500.58,1744.55 2496.59,1748.55 2491.66,1748.55 L 1299.75,1748.55 C 1294.82,1748.55 1290.83,1744.55 1290.83,1739.62 L 1290.83,1215.61 C 1290.83,1210.68 1294.82,1206.68 1299.75,1206.68 L 1299.75,1206.68 L 1299.75,1206.68 L 1299.75,1206.68 z" style="fill:#82b4fa;stroke:#4c5b61;stroke-width:10.02000046;stroke-linejoin:bevel"/><path id="path206" d="M 3174.93,1021.77 C 3407.49,923.04 3677.39,1004.87 3815.98,1216.12 C 3954.57,1427.37 3922.15,1707.53 3738.97,1881.54 C 3555.79,2055.56 3274.35,2073.57 3070.48,1924.34 C 2866.61,1775.1 2798.73,1501.37 2909.25,1274.17 C 2910.25,1272.11 2910.42,1269.76 2909.73,1267.58 C 2886.95,1195.25 2907.36,1116.26 2962.34,1064.03 C 3017.32,1011.8 3097.26,995.46 3168.32,1021.92 C 3170.46,1022.72 3172.82,1022.67 3174.93,1021.77 L 3174.93,1021.77 L 3174.93,1021.77 L 3174.93,1021.77 L 3174.93,1021.77 z" style="fill:#171717;stroke:#9e9e9e;stroke-width:6.01000023;stroke-linejoin:bevel"/><path id="path208" d="M 2926.69,1289.41 C 2824.03,1507.14 2891.02,1767.11 3086.11,1908.11 C 3281.21,2049.12 3549.08,2031.16 3723.6,1865.36 C 3898.12,1699.57 3929.8,1432.97 3798.98,1230.91 C 3668.16,1028.83 3411.96,948.61 3189.25,1039.98 C 3186.11,1041.26 3183.97,1044.23 3183.74,1047.61 C 3183.5,1050.99 3185.2,1054.22 3188.13,1055.94 C 3258.4,1097.12 3291.28,1181.1 3267.65,1259.04 C 3266.65,1262.36 3267.65,1265.97 3270.24,1268.28 C 3272.81,1270.59 3276.51,1271.21 3279.7,1269.84 C 3392.4,1221.74 3523.37,1261.24 3590.68,1363.63 C 3658,1466.01 3642.34,1601.91 3553.5,1686.31 C 3464.66,1770.71 3328.14,1779.38 3229.34,1706.9 C 3130.53,1634.43 3097.8,1501.6 3151.62,1391.52 C 3153.14,1388.4 3152.72,1384.68 3150.54,1381.99 C 3148.36,1379.29 3144.82,1378.1 3141.45,1378.93 C 3062.4,1398.53 2980.21,1361.39 2942.69,1289.1 C 2941.12,1286.09 2937.99,1284.22 2934.6,1284.29 C 2931.2,1284.35 2928.14,1286.34 2926.69,1289.41 L 2926.69,1289.41 L 2926.69,1289.41 L 2926.69,1289.41 L 2926.69,1289.41 z" style="fill:#a5a5a5;stroke:#000;stroke-width:7.21000004;stroke-linejoin:bevel"/><path id="path210" d="M 3063.79,1413.11 C 3023.4,1555.2 3083.05,1706.76 3209.45,1783.22 C 3335.85,1859.67 3497.77,1842.13 3604.88,1740.39 C 3711.98,1638.64 3737.8,1477.83 3667.92,1347.67 C 3598.05,1217.52 3449.75,1150.18 3305.76,1183.23 C 3303.36,1183.78 3300.83,1183.32 3298.78,1181.94 C 3296.74,1180.56 3295.35,1178.4 3294.95,1175.97 C 3287.79,1132.04 3266.06,1091.79 3233.26,1061.69 C 3230.91,1059.53 3229.89,1056.28 3230.59,1053.17 C 3231.28,1050.05 3233.59,1047.55 3236.64,1046.59 C 3448.75,980.34 3678.54,1069.05 3791.11,1260.64 C 3903.68,1452.22 3869.34,1696.13 3708.23,1849.18 C 3547.12,2002.23 3301.78,2024.02 3116.21,1901.78 C 2930.65,1779.53 2853.84,1545.5 2930.87,1337.07 C 2931.98,1334.07 2934.6,1331.9 2937.75,1331.36 C 2940.89,1330.83 2944.09,1332.01 2946.12,1334.47 C 2974.5,1368.77 3013.58,1392.53 3057.09,1401.94 C 3059.5,1402.46 3061.59,1403.96 3062.85,1406.07 C 3064.12,1408.19 3064.46,1410.73 3063.79,1413.11 L 3063.79,1413.11 L 3063.79,1413.11 L 3063.79,1413.11 z" style="fill:#c4c4c4;stroke:#ccc;stroke-width:10.02000046;stroke-linejoin:bevel"/><path id="path212" d="M 3288.82,1266.16 C 3268.44,1332.56 3214.84,1383.48 3147.48,1400.43 C 3098.72,1510.83 3134.65,1640.29 3233.33,1709.77 C 3332.01,1779.25 3466.01,1769.43 3553.5,1686.31 C 3641,1603.19 3657.68,1469.87 3593.34,1367.76 C 3529.02,1265.65 3401.56,1223.13 3288.82,1266.16 L 3288.82,1266.16 L 3288.82,1266.16 L 3288.82,1266.16 L 3288.82,1266.16 z" style="fill:#9e9e9e;stroke:#000;stroke-width:3.04999995;stroke-linejoin:bevel"/><path id="path214" d="M 3167.96,1417.72 C 3165.37,1418.57 3163.3,1420.56 3162.37,1423.12 C 3125.38,1523.83 3162.63,1636.74 3252.27,1695.67 C 3341.92,1754.6 3460.35,1744.02 3538.13,1670.13 C 3615.91,1596.24 3632.55,1478.51 3578.29,1385.95 C 3524.04,1293.4 3413.18,1250.42 3310.71,1282.19 C 3308.11,1283 3306.01,1284.96 3305.03,1287.5 C 3281.17,1349.26 3230.86,1397.06 3167.96,1417.72 L 3167.96,1417.72 z" style="fill:url(#id11);stroke:#ccc;stroke-width:10.02000046;stroke-linejoin:bevel"/><path id="path216" d="M 3275.23,1207.94 C 3275.23,1110.64 3196.35,1031.76 3099.05,1031.76 C 3001.75,1031.76 2922.88,1110.64 2922.88,1207.94 C 2922.88,1305.23 3001.75,1384.11 3099.05,1384.11 C 3196.35,1384.11 3275.23,1305.23 3275.23,1207.94 L 3275.23,1207.94 z" style="fill:#9e9e9e;stroke:#000;stroke-width:3.04999995;stroke-linejoin:bevel"/><path id="path218" d="M 3252.91,1207.94 C 3252.91,1122.96 3184.03,1054.07 3099.05,1054.07 C 3014.08,1054.07 2945.2,1122.96 2945.2,1207.94 C 2945.2,1292.91 3014.08,1361.79 3099.05,1361.79 C 3184.03,1361.79 3252.91,1292.91 3252.91,1207.94 z" style="fill:url(#id12);stroke:#ccc;stroke-width:10.02000046;stroke-linejoin:bevel"/><path id="path220" d="M 3062.23,1166.65 L 3135.88,1166.65 C 3138.34,1166.65 3140.34,1168.65 3140.34,1171.11 L 3140.34,1244.76 C 3140.34,1245.94 3139.87,1247.08 3139.03,1247.92 C 3138.2,1248.75 3137.06,1249.22 3135.88,1249.22 L 3062.23,1249.22 C 3061.05,1249.22 3059.91,1248.75 3059.07,1247.92 C 3058.24,1247.08 3057.77,1245.94 3057.77,1244.76 L 3057.77,1171.11 C 3057.77,1168.65 3059.76,1166.65 3062.23,1166.65 z" style="fill:#919191;stroke:#fff;stroke-width:6.01000023;stroke-linejoin:bevel"/><path id="path222" d="M 3314.85,1539.28 C 3314.85,1540.88 3315.7,1542.35 3317.08,1543.15 C 3318.46,1543.95 3320.16,1543.95 3321.55,1543.15 L 3396.81,1499.7 C 3398.19,1498.9 3399.89,1498.9 3401.27,1499.7 C 3402.65,1500.49 3403.5,1501.96 3403.5,1503.56 L 3403.5,1542.55 C 3403.5,1545.02 3405.5,1547.01 3407.97,1547.01 L 3415.72,1547.01 C 3418.18,1547.01 3420.18,1545.02 3420.18,1542.55 L 3420.18,1443.95 C 3420.18,1441.49 3418.18,1439.49 3415.72,1439.49 L 3407.97,1439.49 C 3405.5,1439.49 3403.5,1441.49 3403.5,1443.95 L 3403.5,1482.94 C 3403.5,1484.54 3402.65,1486.01 3401.27,1486.81 C 3399.89,1487.61 3398.19,1487.61 3396.81,1486.81 L 3321.55,1443.36 C 3320.16,1442.56 3318.46,1442.56 3317.08,1443.36 C 3315.7,1444.15 3314.85,1445.63 3314.85,1447.22 L 3314.85,1539.28 L 3314.85,1539.28 L 3314.85,1539.28 z" style="fill:#919191;stroke:#fff;stroke-width:6.01000023;stroke-linejoin:bevel"/><path id="path224" d="M 3449.07,1439.49 L 3441.32,1439.49 C 3440.14,1439.49 3439,1439.96 3438.16,1440.8 C 3437.32,1441.63 3436.85,1442.77 3436.85,1443.95 L 3436.85,1542.55 C 3436.85,1545.02 3438.85,1547.01 3441.32,1547.01 L 3449.07,1547.01 C 3450.25,1547.01 3451.38,1546.54 3452.22,1545.71 C 3453.06,1544.87 3453.53,1543.73 3453.53,1542.55 L 3453.53,1443.95 C 3453.53,1441.49 3451.53,1439.49 3449.07,1439.49 L 3449.07,1439.49 L 3449.07,1439.49 z" style="fill:#919191;stroke:#fff;stroke-width:6.01000023;stroke-linejoin:bevel"/><path id="path226" d="M 919.53,1601.49 L 919.53,1609.77 C 919.53,1611.25 918.98,1612.65 918.04,1613.57 C 917.1,1614.5 915.87,1614.86 914.68,1614.54 L 899.54,1610.45 C 897.71,1609.96 896.41,1607.97 896.41,1605.68 L 896.41,1592.41 C 896.41,1574 906.12,1557.69 920.43,1552.07 L 960.3,1536.42 C 963.55,1534.99 966.44,1532.57 968.72,1529.39 C 969.55,1528.24 970.04,1526.78 970.14,1525.25 L 970.14,1522.58 C 970.08,1521.38 969.65,1520.26 968.92,1519.45 C 968.2,1518.57 967.41,1517.75 966.59,1517 L 913.42,1470.22 C 903.58,1462.31 897.29,1449.25 896.41,1434.86 L 896.41,1416.7 C 896.41,1415.23 896.96,1413.82 897.9,1412.89 C 898.84,1411.97 900.08,1411.61 901.26,1411.93 L 905.98,1413.21 C 906.75,1413.4 907.54,1412.95 907.92,1412.1 C 908.3,1411.26 908.19,1410.2 907.64,1409.5 C 901.09,1401.62 897.1,1391.08 896.41,1379.85 L 896.41,1300.44 C 896.52,1289.6 898.22,1278.87 901.42,1268.76 C 903.51,1262.58 907.84,1257.94 913.13,1256.23 C 923.7,1254.37 934.42,1258.05 942.66,1266.38 C 950.89,1274.71 955.88,1286.91 956.39,1299.98 L 956.39,1369.63 C 956.39,1371.11 955.85,1372.51 954.9,1373.44 C 953.96,1374.36 952.73,1374.72 951.55,1374.4 L 936.4,1370.31 C 934.58,1369.82 933.27,1367.84 933.27,1365.55 L 933.27,1298.74 C 933.19,1296.87 932.65,1295.07 931.71,1293.58 C 929.75,1291.77 927.29,1290.96 924.85,1291.33 C 922.81,1291.5 921.08,1293.2 920.49,1295.59 C 919.95,1297.82 919.63,1300.12 919.53,1302.44 L 919.53,1370.03 C 919.91,1378.57 924.43,1386.01 931.01,1388.88 C 939.36,1392.15 947.96,1394.44 956.68,1395.7 C 958.95,1395.77 961.22,1395.38 963.4,1394.55 C 966.25,1393.65 968.49,1390.94 969.27,1387.46 C 969.73,1385.52 970.02,1383.53 970.14,1381.52 L 970.14,1244.15 C 970.14,1235.63 966.78,1227.62 961.13,1222.65 L 950.29,1213.1 C 940.44,1205.19 934.16,1192.12 933.27,1177.74 L 933.27,1073.24 C 933.19,1071.37 932.65,1069.56 931.71,1068.07 C 929.75,1066.26 927.29,1065.46 924.85,1065.82 C 922.81,1065.99 921.08,1067.69 920.49,1070.09 C 919.95,1072.32 919.63,1074.61 919.53,1076.93 L 919.53,1228.45 C 919.53,1229.93 918.98,1231.33 918.04,1232.26 C 917.1,1233.18 915.87,1233.54 914.68,1233.22 L 899.54,1229.13 C 897.71,1228.64 896.41,1226.65 896.41,1224.36 L 896.41,1074.94 C 896.52,1064.1 898.22,1053.37 901.42,1043.26 C 903.51,1037.08 907.84,1032.44 913.13,1030.73 C 923.7,1028.86 934.42,1032.54 942.66,1040.88 C 950.89,1049.2 955.88,1061.4 956.39,1074.48 L 956.39,1155.76 C 956.44,1157.83 957.17,1159.78 958.43,1161.16 C 959.05,1161.85 959.82,1162.32 960.65,1162.53 C 961.48,1162.74 962.33,1162.69 963.14,1162.39 C 963.23,1162.36 963.31,1162.33 963.4,1162.3 C 966.25,1161.39 968.49,1158.68 969.27,1155.2 C 969.73,1153.26 970.02,1151.27 970.14,1149.26 L 970.14,1049.28 C 970.14,1047.8 970.69,1046.4 971.63,1045.48 C 972.57,1044.55 973.81,1044.19 974.98,1044.51 L 990.13,1048.6 C 991.95,1049.09 993.26,1051.08 993.26,1053.37 L 993.26,1162.41 C 992.18,1176.74 985.74,1189.66 975.82,1197.37 C 974.77,1198.19 974.09,1199.57 973.99,1201.1 C 973.89,1202.63 974.38,1204.13 975.31,1205.14 C 976.11,1206.13 976.98,1207 977.93,1207.75 C 986.68,1215.61 992.26,1227.7 993.26,1240.95 L 993.26,1396.1 C 992.71,1403.42 990.75,1410.49 987.53,1416.7 C 981.93,1424.81 973.9,1429.25 965.24,1428.68 C 951.48,1427.9 937.85,1424.99 924.69,1420.03 C 923.48,1419.57 922.17,1419.84 921.15,1420.76 C 920.13,1421.68 919.53,1423.14 919.53,1424.69 L 919.53,1427.14 C 919.53,1435.67 922.88,1443.67 928.53,1448.64 L 977.93,1492.11 C 986.86,1500.13 992.43,1513.79 993.26,1527.32 L 993.26,1540.27 C 992.81,1544.36 991.19,1548.13 988.69,1550.89 C 984.97,1554.93 980.63,1558.04 975.93,1560.02 L 934.54,1576.28 C 925.6,1579.79 919.53,1589.98 919.53,1601.49 L 919.53,1601.49 L 919.53,1601.49 L 919.53,1601.49 L 919.53,1601.49 z M 891.57,1640.83 C 892.75,1641.15 893.98,1640.79 894.92,1639.87 C 895.86,1638.94 896.41,1637.54 896.41,1636.06 L 896.41,1613.53 C 896.41,1611.24 895.11,1609.25 893.28,1608.76 L 878.14,1604.67 C 876.96,1604.35 875.73,1604.71 874.79,1605.64 C 873.84,1606.56 873.29,1607.96 873.29,1609.44 L 873.29,1631.97 C 873.29,1634.27 874.6,1636.25 876.42,1636.74 L 891.57,1640.83 L 891.57,1640.83 L 891.57,1640.83 L 891.57,1640.83 z M 896.41,1984.16 L 896.41,1961.63 C 896.41,1959.34 895.11,1957.36 893.28,1956.86 L 878.14,1952.77 C 876.96,1952.46 875.73,1952.81 874.79,1953.74 C 873.84,1954.67 873.29,1956.07 873.29,1957.55 L 873.29,1980.07 C 873.29,1982.37 874.6,1984.35 876.42,1984.84 L 891.57,1988.93 C 892.75,1989.25 893.98,1988.9 894.92,1987.97 C 895.86,1987.04 896.41,1985.64 896.41,1984.16 L 896.41,1984.16 L 896.41,1984.16 z M 914.68,1962.64 C 915.87,1962.96 917.1,1962.6 918.04,1961.68 C 918.98,1960.75 919.53,1959.35 919.53,1957.87 L 919.53,1935.34 C 919.53,1933.05 918.23,1931.06 916.4,1930.57 L 901.26,1926.48 C 900.08,1926.17 898.84,1926.52 897.9,1927.45 C 896.96,1928.37 896.41,1929.77 896.41,1931.26 L 896.41,1953.78 C 896.41,1956.08 897.71,1958.06 899.54,1958.55 L 914.68,1962.64 z M 896.41,1873.57 L 896.41,1715.72 C 896.52,1704.88 898.22,1694.15 901.42,1684.04 C 903.51,1677.85 907.84,1673.22 913.13,1671.51 C 923.52,1669.67 934.07,1673.2 942.26,1681.25 C 950.45,1689.31 955.54,1701.17 956.33,1714 L 956.39,1796.54 C 956.44,1798.61 957.17,1800.55 958.43,1801.94 C 959.05,1802.63 959.82,1803.1 960.65,1803.31 C 961.48,1803.52 962.33,1803.47 963.14,1803.17 C 963.23,1803.14 963.31,1803.1 963.4,1803.07 C 966.25,1802.17 968.49,1799.46 969.27,1795.97 C 969.73,1794.04 970.02,1792.05 970.14,1790.04 L 970.14,1675.76 C 970.06,1672.79 969.51,1669.87 968.54,1667.15 C 967.3,1663.69 964.92,1661.03 962,1659.84 L 922.66,1649.23 C 920.83,1648.73 919.53,1646.75 919.53,1644.45 L 919.53,1621.93 C 919.53,1620.45 920.08,1619.04 921.02,1618.12 C 921.96,1617.19 923.2,1616.84 924.37,1617.16 L 990.13,1634.9 C 991.95,1635.4 993.26,1637.38 993.26,1639.68 L 993.26,1803.18 C 992.18,1817.52 985.74,1830.43 975.82,1838.15 C 974.77,1838.97 974.09,1840.35 973.99,1841.88 C 973.89,1843.41 974.38,1844.91 975.31,1845.92 C 976.17,1846.82 977.04,1847.69 977.93,1848.52 C 986.68,1856.39 992.26,1868.48 993.26,1881.73 L 993.26,1938.92 C 993.26,1940.4 992.71,1941.81 991.77,1942.74 C 990.83,1943.66 989.59,1944.01 988.41,1943.7 L 973.27,1939.61 C 971.44,1939.11 970.14,1937.13 970.14,1934.84 L 970.14,1885.03 C 970.14,1876.5 966.78,1868.5 961.13,1863.52 L 950.29,1853.98 C 940.44,1846.07 934.16,1833 933.27,1818.62 L 933.27,1714.02 C 933.19,1712.14 932.65,1710.34 931.71,1708.85 C 929.75,1707.04 927.29,1706.24 924.85,1706.6 C 922.81,1706.77 921.08,1708.47 920.49,1710.87 C 919.95,1713.09 919.63,1715.39 919.53,1717.71 L 919.53,1877.66 C 919.53,1879.14 918.98,1880.54 918.04,1881.47 C 917.1,1882.4 915.87,1882.75 914.68,1882.43 L 899.54,1878.34 C 897.71,1877.85 896.41,1875.86 896.41,1873.57 L 896.41,1873.57 L 896.41,1873.57 L 896.41,1873.57 L 896.41,1873.57 z M 924.37,1965.26 L 990.18,1983.02 C 992.01,1983.52 993.31,1985.5 993.31,1987.79 L 993.31,2010.32 C 993.31,2011.8 992.76,2013.2 991.82,2014.13 C 990.88,2015.06 989.65,2015.41 988.46,2015.09 L 922.66,1997.32 C 920.83,1996.83 919.53,1994.85 919.53,1992.56 L 919.53,1970.03 C 919.53,1968.55 920.08,1967.15 921.02,1966.22 C 921.96,1965.29 923.2,1964.94 924.37,1965.26 L 924.37,1965.26 L 924.37,1965.26 L 924.37,1965.26 z" style="fill:url(#id13);stroke:#e8e8e8;stroke-width:7.21000004;stroke-linecap:round;stroke-linejoin:bevel"/><path id="path228" d="M 1327.47,1895.15 L 1327.47,1836.78 L 1341.62,1836.78 L 1361.58,1881.96 L 1382.1,1836.78 L 1394.72,1836.78 L 1394.72,1895.15 L 1385.19,1895.15 L 1385.19,1847.69 L 1365.36,1891.25 L 1355.47,1891.25 L 1336.22,1847.56 L 1336.22,1895.15 L 1327.47,1895.15 L 1327.47,1895.15 L 1327.47,1895.15 L 1327.47,1895.15 L 1327.47,1895.15 L 1327.47,1895.15 z M 1412.65,1836.78 L 1422.86,1836.78 L 1422.86,1873.62 C 1422.86,1879.48 1424.21,1883.74 1426.88,1886.41 C 1429.55,1889.08 1433.8,1890.41 1439.64,1890.41 C 1445.33,1890.41 1449.38,1889.16 1451.77,1886.65 C 1454.14,1884.14 1455.34,1879.89 1455.34,1873.9 L 1455.34,1836.78 L 1464.29,1836.78 L 1464.29,1873.78 C 1464.29,1878.88 1463.67,1882.79 1462.44,1885.53 C 1461.2,1888.26 1458.99,1890.67 1455.77,1892.74 C 1451.75,1895.32 1446.23,1896.61 1439.19,1896.61 C 1430.09,1896.61 1423.39,1894.73 1419.09,1891.01 C 1414.79,1887.28 1412.65,1881.45 1412.65,1873.53 L 1412.65,1836.78 L 1412.65,1836.78 L 1412.65,1836.78 L 1412.65,1836.78 z M 1482.24,1895.15 L 1482.24,1836.78 L 1492.45,1836.78 L 1492.45,1888.96 L 1524.83,1888.96 L 1524.83,1895.15 L 1482.24,1895.15 L 1482.24,1895.15 L 1482.24,1895.15 z M 1552.45,1895.15 L 1552.45,1842.98 L 1526.93,1842.98 L 1526.93,1836.78 L 1588.19,1836.78 L 1588.19,1842.98 L 1562.66,1842.98 L 1562.66,1895.15 L 1552.45,1895.15 L 1552.45,1895.15 L 1552.45,1895.15 L 1552.45,1895.15 L 1552.45,1895.15 z M 1598.27,1895.15 L 1598.27,1836.78 L 1608.47,1836.78 L 1608.47,1895.15 L 1598.27,1895.15 z M 1624.92,1873.74 L 1624.92,1868.89 L 1668.1,1868.89 L 1668.1,1873.74 L 1624.92,1873.74 z M 1738.73,1892.15 C 1731.62,1895.13 1723.87,1896.61 1715.47,1896.61 C 1704.3,1896.61 1695.66,1893.95 1689.56,1888.64 C 1683.47,1883.33 1680.42,1875.78 1680.42,1866.01 C 1680.42,1856.25 1683.52,1848.7 1689.73,1843.35 C 1695.94,1838.01 1704.7,1835.33 1716.02,1835.33 C 1722.42,1835.33 1729.96,1836.18 1738.62,1837.89 L 1738.62,1845.65 C 1728.76,1842.89 1721.16,1841.52 1715.82,1841.52 C 1708,1841.52 1701.96,1843.67 1697.68,1847.95 C 1693.4,1852.24 1691.26,1858.28 1691.26,1866.09 C 1691.26,1873.56 1693.55,1879.43 1698.11,1883.71 C 1702.69,1888.01 1708.95,1890.14 1716.88,1890.14 C 1723.67,1890.14 1730.94,1888.45 1738.73,1885.05 L 1738.73,1892.15 L 1738.73,1892.15 L 1738.73,1892.15 L 1738.73,1892.15 L 1738.73,1892.15 L 1738.73,1892.15 z M 1782.98,1896.61 C 1772.75,1896.61 1764.58,1893.82 1758.47,1888.26 C 1752.37,1882.71 1749.32,1875.27 1749.32,1865.97 C 1749.32,1856.67 1752.37,1849.24 1758.47,1843.68 C 1764.58,1838.12 1772.75,1835.33 1782.98,1835.33 C 1793.18,1835.33 1801.35,1838.12 1807.46,1843.68 C 1813.57,1849.24 1816.62,1856.67 1816.62,1865.97 C 1816.62,1875.27 1813.57,1882.71 1807.46,1888.26 C 1801.35,1893.82 1793.18,1896.61 1782.98,1896.61 z M 1782.98,1890.41 C 1790.13,1890.41 1795.72,1888.25 1799.76,1883.93 C 1803.77,1879.6 1805.78,1873.59 1805.78,1865.89 C 1805.78,1858.24 1803.77,1852.27 1799.76,1847.97 C 1795.72,1843.68 1790.13,1841.52 1782.98,1841.52 C 1775.8,1841.52 1770.21,1843.68 1766.18,1847.97 C 1762.16,1852.27 1760.16,1858.24 1760.16,1865.89 C 1760.16,1873.59 1762.16,1879.6 1766.18,1883.93 C 1770.21,1888.25 1775.8,1890.41 1782.98,1890.41 z M 1830.91,1895.15 L 1830.91,1836.78 L 1854.83,1836.78 C 1861.97,1836.78 1867.73,1837.43 1872.13,1838.72 C 1876.53,1840.01 1880.33,1842.18 1883.53,1845.26 C 1888.62,1850.16 1891.16,1856.6 1891.16,1864.58 C 1891.16,1873.6 1888.17,1880.91 1882.21,1886.51 C 1878.98,1889.59 1875.22,1891.8 1870.96,1893.15 C 1866.69,1894.48 1861.37,1895.15 1854.98,1895.15 L 1830.91,1895.15 L 1830.91,1895.15 L 1830.91,1895.15 L 1830.91,1895.15 L 1830.91,1895.15 L 1830.91,1895.15 z M 1841.12,1888.96 L 1854.2,1888.96 C 1863.54,1888.96 1870.16,1886.93 1874.05,1882.85 C 1878.23,1878.51 1880.33,1872.68 1880.33,1865.38 C 1880.33,1858.51 1878.27,1853.13 1874.15,1849.21 C 1871.64,1846.81 1868.67,1845.19 1865.2,1844.29 C 1861.74,1843.42 1856.5,1842.98 1849.53,1842.98 L 1841.12,1842.98 L 1841.12,1888.96 L 1841.12,1888.96 L 1841.12,1888.96 L 1841.12,1888.96 L 1841.12,1888.96 L 1841.12,1888.96 z M 1905.5,1895.15 L 1905.5,1836.78 L 1945.72,1836.78 L 1945.72,1842.98 L 1915.71,1842.98 L 1915.71,1861.71 L 1940.86,1861.71 L 1940.86,1867.83 L 1915.71,1867.83 L 1915.71,1888.96 L 1947.81,1888.96 L 1947.81,1895.15 L 1905.5,1895.15 L 1905.5,1895.15 L 1905.5,1895.15 L 1905.5,1895.15 z M 2013.56,1892.15 C 2006.45,1895.13 1998.7,1896.61 1990.31,1896.61 C 1979.13,1896.61 1970.49,1893.95 1964.39,1888.64 C 1958.3,1883.33 1955.25,1875.78 1955.25,1866.01 C 1955.25,1856.25 1958.36,1848.7 1964.56,1843.35 C 1970.77,1838.01 1979.53,1835.33 1990.85,1835.33 C 1997.26,1835.33 2004.79,1836.18 2013.45,1837.89 L 2013.45,1845.65 C 2003.6,1842.89 1996,1841.52 1990.65,1841.52 C 1982.83,1841.52 1976.79,1843.67 1972.51,1847.95 C 1968.23,1852.24 1966.09,1858.28 1966.09,1866.09 C 1966.09,1873.56 1968.38,1879.43 1972.94,1883.71 C 1977.52,1888.01 1983.78,1890.14 1991.71,1890.14 C 1998.5,1890.14 2005.77,1888.45 2013.56,1885.05 L 2013.56,1892.15 L 2013.56,1892.15 L 2013.56,1892.15 L 2013.56,1892.15 L 2013.56,1892.15 L 2013.56,1892.15 z M 2041.64,1905.99 L 2041.64,1898.65 C 2045.53,1899.69 2049,1900.2 2052.05,1900.2 C 2055.87,1900.2 2058.56,1899.3 2060.1,1897.48 C 2061.65,1895.66 2062.41,1892.53 2062.41,1888.06 L 2062.41,1836.78 L 2072.62,1836.78 L 2072.62,1887.78 C 2072.62,1900.47 2065.21,1906.82 2050.39,1906.82 C 2048.14,1906.82 2045.21,1906.54 2041.64,1905.99 z M 2090.26,1836.78 L 2100.47,1836.78 L 2100.47,1873.62 C 2100.47,1879.48 2101.82,1883.74 2104.49,1886.41 C 2107.16,1889.08 2111.41,1890.41 2117.25,1890.41 C 2122.95,1890.41 2127,1889.16 2129.38,1886.65 C 2131.76,1884.14 2132.95,1879.89 2132.95,1873.9 L 2132.95,1836.78 L 2141.89,1836.78 L 2141.89,1873.78 C 2141.89,1878.88 2141.28,1882.79 2140.05,1885.53 C 2138.81,1888.26 2136.61,1890.67 2133.38,1892.74 C 2129.37,1895.32 2123.84,1896.61 2116.8,1896.61 C 2107.7,1896.61 2101,1894.73 2096.7,1891.01 C 2092.41,1887.28 2090.26,1881.45 2090.26,1873.53 L 2090.26,1836.78 L 2090.26,1836.78 L 2090.26,1836.78 L 2090.26,1836.78 L 2090.26,1836.78 z M 2159.85,1895.15 L 2159.85,1836.78 L 2169.43,1836.78 L 2169.43,1865.49 L 2198.56,1836.78 L 2208.82,1836.78 L 2180.64,1864.62 L 2213.83,1895.15 L 2200.9,1895.15 L 2169.43,1865.58 L 2169.43,1895.15 L 2159.85,1895.15 L 2159.85,1895.15 z M 2224.86,1895.15 L 2224.86,1836.78 L 2265.08,1836.78 L 2265.08,1842.98 L 2235.08,1842.98 L 2235.08,1861.71 L 2260.22,1861.71 L 2260.22,1867.83 L 2235.08,1867.83 L 2235.08,1888.96 L 2267.17,1888.96 L 2267.17,1895.15 L 2224.86,1895.15 L 2224.86,1895.15 z M 2278.84,1895.15 L 2278.84,1836.78 L 2297.52,1836.78 C 2304.72,1836.78 2310.23,1837.89 2314.08,1840.1 C 2317.92,1842.3 2319.84,1845.48 2319.84,1849.64 C 2319.84,1853 2318.56,1856.01 2315.99,1858.63 C 2313.43,1861.26 2309.79,1863.3 2305.06,1864.75 C 2316.82,1867.67 2322.71,1872.93 2322.71,1880.56 C 2322.71,1883.98 2321.41,1887.01 2318.83,1889.68 C 2316.83,1891.69 2314.47,1893.12 2311.67,1893.92 C 2308.88,1894.75 2305.01,1895.15 2300.06,1895.15 L 2278.84,1895.15 L 2278.84,1895.15 L 2278.84,1895.15 L 2278.84,1895.15 z M 2288.95,1888.96 L 2291.04,1888.96 C 2298.55,1888.96 2303.39,1888.58 2305.6,1887.81 C 2309.81,1886.38 2311.93,1883.69 2311.93,1879.76 C 2311.93,1876.31 2310.01,1873.41 2306.18,1871.11 C 2302.35,1868.81 2297.56,1867.67 2291.82,1867.67 L 2288.95,1867.67 L 2288.95,1888.96 L 2288.95,1888.96 L 2288.95,1888.96 L 2288.95,1888.96 z M 2288.95,1862.41 L 2292.21,1862.41 C 2297.7,1862.41 2301.93,1861.48 2304.9,1859.58 C 2307.89,1857.69 2309.38,1854.98 2309.38,1851.49 C 2309.38,1845.82 2303.9,1842.98 2292.94,1842.98 L 2288.95,1842.98 L 2288.95,1862.41 L 2288.95,1862.41 L 2288.95,1862.41 L 2288.95,1862.41 L 2288.95,1862.41 z M 2365.55,1896.61 C 2355.33,1896.61 2347.16,1893.82 2341.05,1888.26 C 2334.94,1882.71 2331.89,1875.27 2331.89,1865.97 C 2331.89,1856.67 2334.94,1849.24 2341.05,1843.68 C 2347.16,1838.12 2355.33,1835.33 2365.55,1835.33 C 2375.75,1835.33 2383.93,1838.12 2390.03,1843.68 C 2396.14,1849.24 2399.19,1856.67 2399.19,1865.97 C 2399.19,1875.27 2396.14,1882.71 2390.03,1888.26 C 2383.93,1893.82 2375.75,1896.61 2365.55,1896.61 z M 2365.55,1890.41 C 2372.7,1890.41 2378.3,1888.25 2382.33,1883.93 C 2386.35,1879.6 2388.35,1873.59 2388.35,1865.89 C 2388.35,1858.24 2386.35,1852.27 2382.33,1847.97 C 2378.3,1843.68 2372.7,1841.52 2365.55,1841.52 C 2358.38,1841.52 2352.78,1843.68 2348.75,1847.97 C 2344.74,1852.27 2342.73,1858.24 2342.73,1865.89 C 2342.73,1873.59 2344.74,1879.6 2348.75,1883.93 C 2352.78,1888.25 2358.38,1890.41 2365.55,1890.41 z M 2404.98,1895.15 L 2428.85,1865.86 L 2406.13,1836.78 L 2418.18,1836.78 L 2435.53,1858.77 L 2453.72,1836.78 L 2463.33,1836.78 L 2440.32,1864.97 L 2463.91,1895.15 L 2451.86,1895.15 L 2433.55,1872.01 L 2414.65,1895.15 L 2404.98,1895.15 L 2404.98,1895.15 L 2404.98,1895.15 L 2404.98,1895.15 L 2404.98,1895.15 L 2404.98,1895.15 z" style="fill:url(#id14);stroke:#d1d1d1;stroke-width:3.04999995"/><g id="g230"><path id="path232" d="M 1689.44,1364.21 C 1669.48,1277.39 1617.82,1273.61 1605.67,1273.61 L 1605.67,1268.53 C 1632.61,1268.53 1676.15,1287.76 1691.97,1353.74 C 1712.25,1287.9 1746.86,1270.22 1771.16,1269.89 C 1794.3,1269.57 1808.59,1274.97 1830.53,1286.4 L 1830.53,1276.1 L 1893.88,1276.1 L 1893.88,1267.41 L 1898.95,1267.41 L 1898.95,1276.1 L 1909.7,1276.1 L 1909.7,1281.17 L 1898.95,1281.17 L 1898.95,1405.32 L 1944.52,1290.15 L 1988.17,1290.15 L 1991.97,1281.17 L 1937.58,1281.17 L 1937.58,1276.1 L 1994.12,1276.1 L 2000.09,1261.99 L 2004.77,1263.97 L 1999.63,1276.1 L 2011.66,1276.1 L 2011.66,1281.17 L 1997.48,1281.17 L 1961.97,1364.97 L 2009,1364.97 L 2009,1427.78 C 2053,1406.11 2105.65,1422.01 2132.19,1464.41 C 2158.51,1423.83 2209.94,1407.66 2254.74,1425.88 L 2252.96,1423 L 2328.69,1423 L 2343.82,1447.45 L 2358.59,1423.56 C 2358.81,1423.21 2359.2,1423 2359.61,1423 L 2359.61,1423 C 2360.05,1423 2360.45,1423.23 2360.66,1423.61 C 2360.87,1423.99 2360.86,1424.45 2360.63,1424.82 L 2345.23,1449.73 L 2347.2,1452.92 L 2365.36,1423.56 C 2365.58,1423.21 2365.97,1423 2366.38,1423 L 2366.38,1423 C 2366.82,1423 2367.22,1423.23 2367.43,1423.61 C 2367.64,1423.99 2367.63,1424.45 2367.4,1424.82 L 2348.61,1455.2 L 2350.59,1458.39 L 2372.48,1423 L 2448.21,1423 L 2388.45,1519.62 L 2390.42,1522.8 L 2453.48,1420.86 L 2374.81,1420.86 C 2374.38,1420.86 2373.98,1420.62 2373.76,1420.24 C 2373.55,1419.86 2373.56,1419.39 2373.79,1419.02 L 2373.79,1419.02 C 2374.01,1418.67 2374.4,1418.46 2374.81,1418.46 L 2457.78,1418.46 L 2395.21,1519.62 L 2453.75,1614.25 C 2453.97,1614.62 2453.99,1615.08 2453.77,1615.46 C 2453.56,1615.84 2453.16,1616.08 2452.73,1616.08 C 2452.31,1616.08 2451.92,1615.86 2451.71,1615.51 L 2393.81,1521.9 L 2391.83,1525.08 L 2448.11,1616.08 L 2372.38,1616.08 L 2357.92,1592.69 L 2343.81,1615.51 C 2343.59,1615.86 2343.2,1616.08 2342.78,1616.08 L 2342.78,1616.08 C 2342.59,1616.08 2342.39,1616.03 2342.22,1615.94 C 2342.05,1616.03 2341.85,1616.08 2341.65,1616.08 C 2341.22,1616.08 2340.82,1615.84 2340.61,1615.46 C 2340.4,1615.08 2340.4,1614.62 2340.64,1614.25 L 2355.94,1589.5 L 2353.97,1586.31 L 2335.91,1615.51 C 2335.69,1615.86 2335.31,1616.08 2334.89,1616.08 C 2334.45,1616.08 2334.05,1615.84 2333.84,1615.46 C 2333.63,1615.08 2333.64,1614.62 2333.87,1614.25 L 2352.56,1584.03 L 2350.59,1580.84 L 2328.79,1616.08 L 2253.06,1616.08 L 2255.28,1612.5 C 2210.44,1631.02 2158.76,1614.98 2132.28,1574.32 C 2105.78,1616.82 2053.06,1632.38 2009,1610.69 L 2009,1616.08 L 1944.66,1616.08 L 1944.66,1615.59 L 1934.03,1615.59 L 1938.67,1628.69 L 1933.88,1630.38 L 1928.65,1615.59 L 1908.25,1615.59 L 1908.25,1610.52 L 1926.85,1610.52 L 1888.95,1503.53 L 1886.71,1508.99 L 1886.71,1616.08 L 1844.74,1616.08 L 1844.74,1290.15 L 1886.71,1290.15 L 1886.71,1436.27 L 1893.88,1418.15 L 1893.88,1281.17 L 1835.6,1281.17 L 1835.6,1296.01 C 1810.33,1279.01 1793.38,1274.97 1771.16,1274.97 C 1753.55,1274.97 1714.93,1287.79 1694.51,1364.21 L 1689.44,1364.21 L 1689.44,1364.21 L 1689.44,1364.21 L 1689.44,1364.21 L 1689.44,1364.21 L 1689.44,1364.21 z M 1780.34,1622.93 L 1700.33,1622.93 L 1700.33,1617.85 L 1754.97,1617.85 C 1713.33,1599.36 1695.18,1532.45 1695.18,1453.11 C 1695.18,1359.58 1720.39,1283.29 1779.62,1283.29 C 1806.83,1283.29 1822.3,1297.28 1835.6,1310.02 L 1835.6,1318.33 C 1835.61,1318.34 1835.61,1318.35 1835.62,1318.35 L 1835.61,1388.79 L 1831.09,1388.79 C 1821.28,1370.9 1803.24,1345.79 1784.61,1345.79 C 1753.56,1345.79 1738.2,1393.89 1738.59,1453.11 C 1738.2,1512.34 1753.56,1560.43 1784.61,1560.43 C 1803.24,1560.43 1821.28,1535.32 1831.09,1517.45 L 1835.61,1517.45 L 1835.62,1587.87 C 1835.61,1587.88 1835.61,1587.89 1835.6,1587.9 L 1835.6,1596.21 C 1822.41,1608.84 1807.11,1622.68 1780.34,1622.93 L 1780.34,1622.93 L 1780.34,1622.93 L 1780.34,1622.93 L 1780.34,1622.93 z M 1605.06,1283.29 C 1663.77,1283.29 1688.76,1363.38 1688.76,1453.11 C 1688.76,1542.85 1663.77,1622.93 1605.06,1622.93 C 1546.34,1622.93 1521.35,1546.65 1521.35,1453.11 C 1521.35,1359.58 1546.34,1283.29 1605.06,1283.29 z M 1458.88,1290.15 L 1382.43,1290.15 L 1382.43,1479.43 C 1382.93,1480.75 1383.42,1482.07 1383.91,1483.4 C 1387.34,1482.46 1390.9,1482.08 1394.45,1482.27 C 1401.41,1482.64 1407.67,1486.58 1411.01,1492.7 C 1414.03,1498.22 1415.46,1504.46 1415.16,1510.75 C 1415.03,1513.38 1414.34,1515.94 1413.13,1518.28 C 1410.16,1524.01 1405.58,1528.76 1399.95,1531.92 C 1401.85,1538.39 1403.67,1544.88 1405.41,1551.4 C 1408.73,1563.86 1410.29,1576.73 1410.04,1589.62 C 1409.98,1592.95 1409.26,1596.24 1407.92,1599.28 C 1406.55,1602.4 1404.15,1604.96 1401.11,1606.52 C 1398.91,1607.65 1396.35,1607.84 1394,1607.04 C 1391.66,1606.24 1389.75,1604.51 1388.71,1602.27 C 1387.49,1599.66 1386.9,1596.8 1386.97,1593.92 C 1387.01,1592.3 1387.79,1590.79 1389.1,1589.82 C 1390.73,1588.59 1392.75,1587.98 1394.79,1588.08 C 1396.13,1588.15 1397.33,1588.93 1397.93,1590.13 C 1398.53,1591.33 1398.44,1592.76 1397.69,1593.87 C 1396.76,1595.24 1395.4,1596.26 1393.82,1596.77 L 1394.37,1597.94 C 1394.62,1598.61 1395.18,1599.11 1395.88,1599.28 C 1396.57,1599.45 1397.3,1599.28 1397.84,1598.8 C 1400.48,1596.56 1402.12,1593.36 1402.41,1589.9 C 1402.79,1583.95 1402.66,1577.98 1402.03,1572.05 C 1400.18,1559.39 1397.42,1546.87 1393.77,1534.6 C 1392.83,1534.9 1391.89,1535.15 1390.93,1535.37 C 1388.12,1535.99 1385.29,1536.48 1382.43,1536.83 L 1382.43,1616.08 L 1433.6,1616.08 L 1433.6,1626.68 L 1438.68,1626.68 L 1438.68,1616.08 L 1449.58,1616.08 L 1449.58,1611 L 1438.68,1611 L 1438.68,1496.72 L 1443.58,1496.72 L 1488.23,1616.08 L 1537.27,1616.08 L 1541.7,1627.39 L 1546.42,1625.54 L 1542.02,1614.29 L 1557.32,1614.29 L 1557.32,1609.21 L 1540.02,1609.21 L 1487.22,1474.44 C 1506.66,1454.39 1517.81,1424.21 1517.81,1385.89 C 1517.81,1334.52 1503.9,1290.15 1458.88,1290.15 L 1458.88,1290.15 L 1458.88,1290.15 L 1458.88,1290.15 L 1458.88,1290.15 L 1458.88,1290.15 z M 1391.54,1527.45 C 1388.63,1528.66 1385.56,1529.46 1382.43,1529.85 L 1382.43,1500.96 C 1385.59,1509.72 1388.61,1518.51 1391.51,1527.35 C 1391.52,1527.39 1391.53,1527.42 1391.54,1527.45 C 1391.54,1527.45 1391.54,1527.45 1391.54,1527.45 C 1391.54,1527.45 1391.54,1527.45 1391.54,1527.45 C 1391.54,1527.45 1391.54,1527.45 1391.54,1527.45 M 1386.75,1491.26 C 1387.75,1490.99 1388.76,1490.76 1389.77,1490.57 C 1392.96,1489.98 1396.25,1490.75 1398.85,1492.7 C 1401.21,1494.47 1402.91,1496.98 1403.67,1499.83 C 1405.39,1506.19 1405.02,1512.92 1402.61,1519.05 C 1402.11,1520.34 1401.27,1521.47 1400.2,1522.34 C 1399.37,1523 1398.52,1523.63 1397.64,1524.21 C 1394.25,1513.15 1390.62,1502.17 1386.75,1491.26 M 1382.43,1529.85 C 1381.63,1529.94 1380.83,1530.01 1380.02,1530.06 C 1371.23,1530.53 1363.05,1525.55 1359.46,1517.51 C 1353.08,1503.24 1352.15,1487.13 1356.85,1472.23 C 1358.5,1467 1360.21,1461.78 1361.97,1456.59 C 1362.46,1455.15 1362.95,1453.71 1363.45,1452.28 C 1368.16,1463.49 1372.67,1474.79 1376.98,1486.16 C 1370.85,1489.45 1365.91,1494.57 1362.84,1500.81 C 1362.33,1501.84 1362.53,1503.07 1363.33,1503.9 C 1364.14,1504.72 1365.37,1504.94 1366.42,1504.46 C 1367.32,1503.8 1368.16,1503.07 1368.92,1502.25 C 1372.02,1498.82 1375.73,1495.99 1379.87,1493.91 C 1380.73,1496.25 1381.59,1498.61 1382.43,1500.96 L 1382.43,1479.43 C 1378.36,1468.53 1374.05,1457.73 1369.5,1447.03 C 1368.74,1445.26 1367.97,1443.5 1367.19,1441.74 C 1368.14,1439.14 1369.1,1436.54 1370.08,1433.95 C 1371.47,1430.25 1372.54,1426.44 1373.26,1422.56 C 1374.08,1418.17 1373.72,1413.63 1372.2,1409.43 C 1368.75,1399.85 1362.1,1391.75 1353.38,1386.5 C 1349.54,1384.19 1345.11,1383.05 1340.63,1383.22 C 1336.88,1383.36 1333.85,1386.33 1333.64,1390.07 C 1333.44,1393.47 1334.23,1396.86 1335.91,1399.82 C 1337.46,1402.57 1339.13,1405.24 1340.92,1407.84 C 1346.45,1415.84 1351.22,1424.34 1355.18,1433.23 C 1355.96,1434.97 1356.74,1436.72 1357.51,1438.48 C 1356.3,1441.8 1355.12,1445.14 1353.96,1448.48 C 1348.58,1464 1345.11,1480.11 1343.63,1496.46 C 1342.93,1504.18 1343.61,1511.96 1345.65,1519.44 C 1348.46,1529.69 1357.58,1536.96 1368.19,1537.39 C 1372.95,1537.59 1377.71,1537.4 1382.43,1536.83 L 1382.43,1529.85 M 1451.96,1276.58 L 1372.92,1276.58 L 1372.92,1264.26 L 1367.84,1264.26 L 1367.84,1276.58 L 1356.02,1276.58 L 1356.02,1281.66 L 1367.84,1281.66 L 1367.84,1338.2 L 1372.92,1338.2 L 1372.92,1281.66 L 1451.96,1281.66 L 1451.96,1276.58 z" style="fill:#000"/><path id="path234" d="M 2434.87,1430.43 L 2376.62,1430.43 L 2350.59,1472.53 L 2324.55,1430.43 L 2266.3,1430.43 L 2277.22,1448.09 C 2254.99,1429.21 2225.22,1421.81 2196.74,1428.06 C 2168.26,1434.32 2144.34,1453.53 2132.06,1479.98 C 2121.06,1455.37 2100.36,1436.95 2075.32,1429.49 C 2050.28,1422.03 2023.37,1426.28 2001.56,1441.12 L 2001.56,1371.24 L 1952.09,1371.24 L 1952.09,1607.48 L 2001.56,1607.48 L 2001.56,1597.95 C 2023.41,1612.82 2050.37,1617.05 2075.44,1609.54 C 2100.52,1602.03 2121.22,1583.53 2132.17,1558.84 C 2144.58,1585.4 2168.74,1604.59 2197.41,1610.67 C 2226.09,1616.75 2255.95,1609.01 2278.07,1589.77 L 2266.4,1608.64 L 2324.65,1608.64 L 2350.59,1566.7 L 2376.52,1608.64 L 2434.77,1608.64 L 2379.71,1519.62 L 2434.87,1430.43 L 2434.87,1430.43 L 2434.87,1430.43 L 2434.87,1430.43 L 2434.87,1430.43 L 2434.87,1430.43 z" style="fill:#82b4fa"/><path id="path236" d="M 2089.51,1519.29 C 2089.51,1495.01 2069.82,1475.32 2045.54,1475.32 C 2021.25,1475.32 2001.56,1495.01 2001.56,1519.29 C 2001.56,1543.58 2021.25,1563.27 2045.54,1563.27 C 2069.82,1563.27 2089.51,1543.58 2089.51,1519.29 L 2089.51,1519.29 z M 2307.48,1497 C 2311.16,1512.01 2311.07,1527.7 2307.21,1542.66 L 2321.46,1519.62 L 2307.48,1497 M 2260.75,1519.29 C 2260.75,1495.01 2241.06,1475.32 2216.78,1475.32 C 2192.5,1475.32 2172.81,1495.01 2172.81,1519.29 C 2172.81,1543.58 2192.5,1563.27 2216.78,1563.27 C 2241.06,1563.27 2260.75,1543.58 2260.75,1519.29 L 2260.75,1519.29 z" style="fill:#000"/><path id="path238" d="M 1424.4,1611 L 1433.6,1611 L 1433.6,1496.72 L 1424.4,1496.72 L 1424.4,1611 M 1443.39,1424.68 C 1458.9,1424.68 1461.33,1405.02 1461.31,1391.52 C 1461.3,1378.03 1459.34,1363.39 1445.8,1363.39 L 1424.4,1363.39 L 1424.4,1437.96 L 1433.6,1437.96 L 1433.6,1424.68 L 1443.39,1424.68 L 1443.39,1424.68 L 1443.39,1424.68 L 1443.39,1424.68 z M 1443.39,1429.76 L 1438.68,1429.76 L 1438.68,1437.96 L 1439,1437.96 C 1473.56,1437.96 1473.56,1407.01 1473.56,1396.25 L 1473.56,1389.31 C 1473.56,1378.88 1473.49,1350.11 1444.39,1350.11 L 1424.4,1350.11 L 1424.4,1358.31 L 1443.39,1358.31 C 1453.27,1358.31 1466.52,1359.71 1466.52,1392.84 C 1466.52,1425.96 1453.2,1429.48 1443.39,1429.76 L 1443.39,1429.76 L 1443.39,1429.76 L 1443.39,1429.76 L 1443.39,1429.76 L 1443.39,1429.76 z M 1361.09,1428.85 C 1357.11,1420.91 1352.8,1413.14 1348.18,1405.56 C 1346.72,1403.14 1345.39,1400.65 1344.2,1398.08 C 1343.43,1396.41 1342.98,1394.61 1342.85,1392.77 C 1342.83,1392.38 1342.97,1391.99 1343.25,1391.71 C 1343.52,1391.42 1343.91,1391.27 1344.3,1391.28 C 1346.21,1391.34 1348.07,1391.89 1349.71,1392.87 C 1356.75,1397.09 1361.77,1403.99 1363.61,1411.99 C 1364.14,1414.32 1364.16,1416.74 1363.66,1419.08 C 1362.95,1422.37 1362.09,1425.64 1361.09,1428.85 L 1361.09,1428.85 M 2215.58,1555.81 L 2217.98,1555.81 C 2237.91,1555.16 2253.64,1538.64 2253.31,1518.69 C 2252.98,1498.75 2236.73,1482.75 2216.78,1482.75 C 2196.84,1482.75 2180.58,1498.75 2180.25,1518.69 C 2179.92,1538.64 2195.65,1555.16 2215.58,1555.81 L 2215.58,1555.81 L 2215.58,1555.81 z M 2044.34,1555.81 L 2046.73,1555.81 C 2066.67,1555.16 2082.39,1538.64 2082.06,1518.69 C 2081.74,1498.75 2065.48,1482.75 2045.54,1482.75 C 2025.59,1482.75 2009.33,1498.75 2009,1518.69 C 2008.68,1538.64 2024.4,1555.16 2044.34,1555.81 L 2044.34,1555.81 L 2044.34,1555.81 z M 1929.79,1440.93 L 1944.66,1479.38 L 1944.66,1405.84 L 1929.79,1440.93 M 1932.23,1610.52 L 1891.84,1496.49 L 1896.58,1484.95 L 1943.25,1610.52 L 1932.23,1610.52 M 1605.06,1344.7 C 1633.33,1344.7 1645.36,1395.82 1645.36,1453.11 C 1645.36,1510.41 1633.33,1561.53 1605.06,1561.53 C 1576.78,1561.53 1564.76,1512.83 1564.76,1453.11 C 1564.76,1393.4 1576.78,1344.7 1605.06,1344.7 z" style="fill:#82b4fa"/><path id="path240" d="M 2215.58,1555.81 C 2216.38,1555.87 2217.18,1555.87 2217.98,1555.81 L 2217.98,1552.45 C 2236.06,1551.8 2250.29,1536.77 2249.96,1518.69 C 2249.62,1500.59 2234.86,1486.1 2216.76,1486.11 C 2216.32,1486.1 2215.97,1486.33 2215.75,1486.7 C 2215.53,1487.08 2215.53,1487.54 2215.75,1487.91 C 2215.96,1488.29 2216.32,1488.52 2216.76,1488.51 C 2227.9,1488.5 2238.18,1494.52 2243.63,1504.24 C 2249.08,1513.96 2248.85,1525.86 2243.03,1535.36 C 2237.22,1544.87 2226.71,1550.49 2215.58,1550.05 L 2215.58,1555.81 L 2215.58,1555.81 L 2215.58,1555.81 z M 2045.54,1546.72 C 2044.87,1546.72 2044.34,1546.18 2044.34,1545.52 C 2044.34,1544.86 2044.87,1544.32 2045.54,1544.32 C 2059.36,1544.32 2070.56,1533.12 2070.56,1519.29 C 2070.56,1505.47 2059.36,1494.27 2045.54,1494.27 C 2044.87,1494.27 2044.34,1493.73 2044.34,1493.07 C 2044.34,1492.41 2044.87,1491.87 2045.54,1491.87 C 2060.68,1491.87 2072.96,1504.15 2072.96,1519.29 C 2072.96,1534.44 2060.68,1546.72 2045.54,1546.72 L 2045.54,1546.72 L 2045.54,1546.72 z M 2216.78,1546.72 C 2216.12,1546.72 2215.58,1546.18 2215.58,1545.52 C 2215.58,1544.86 2216.12,1544.32 2216.78,1544.32 C 2230.6,1544.32 2241.81,1533.12 2241.81,1519.29 C 2241.81,1505.47 2230.6,1494.27 2216.78,1494.27 C 2216.12,1494.27 2215.58,1493.73 2215.58,1493.07 C 2215.58,1492.41 2216.12,1491.87 2216.78,1491.87 C 2231.93,1491.87 2244.2,1504.15 2244.2,1519.29 C 2244.2,1534.44 2231.93,1546.72 2216.78,1546.72 L 2216.78,1546.72 L 2216.78,1546.72 z M 2044.34,1555.81 C 2045.13,1555.85 2045.93,1555.84 2046.73,1555.81 L 2046.73,1552.45 C 2064.82,1551.8 2079.04,1536.77 2078.71,1518.69 C 2078.38,1500.59 2063.61,1486.1 2045.51,1486.11 C 2045.08,1486.1 2044.72,1486.33 2044.5,1486.7 C 2044.28,1487.08 2044.28,1487.54 2044.5,1487.91 C 2044.72,1488.29 2045.08,1488.52 2045.52,1488.51 C 2056.66,1488.5 2066.93,1494.52 2072.38,1504.24 C 2077.84,1513.96 2077.6,1525.86 2071.79,1535.36 C 2065.97,1544.87 2055.47,1550.49 2044.34,1550.05 L 2044.34,1555.81 L 2044.34,1555.81 L 2044.34,1555.81 L 2044.34,1555.81 L 2044.34,1555.81 L 2044.34,1555.81 z M 1605.06,1546.27 L 1605.06,1533.74 L 1599.98,1533.74 L 1599.98,1547.09 L 1599.98,1552.16 C 1627.42,1552.16 1635.47,1505.56 1635.67,1455.65 L 1751.16,1455.65 C 1751.43,1490.79 1759.14,1544.56 1782.07,1548.27 L 1782.07,1561.53 L 1787.15,1561.53 L 1787.15,1455.65 L 1807.36,1455.65 L 1807.36,1450.58 L 1787.15,1450.58 L 1787.15,1432.26 L 1782.07,1432.26 L 1782.07,1450.58 L 1756.25,1450.58 C 1756.8,1415.75 1766.53,1364.84 1784.61,1364.01 L 1784.61,1358.93 C 1760.9,1359.85 1751.68,1414.2 1751.17,1450.58 L 1635.66,1450.58 C 1635.33,1400.9 1627.31,1354.68 1599.98,1354.68 L 1599.98,1359.55 L 1599.98,1450.58 L 1584.47,1450.58 L 1584.47,1455.65 L 1599.98,1455.65 L 1599.98,1473.38 L 1605.06,1473.38 L 1605.06,1455.65 L 1630.58,1455.65 C 1630.33,1487.6 1626.3,1539.22 1605.06,1546.27 L 1605.06,1546.27 L 1605.06,1546.27 L 1605.06,1546.27 L 1605.06,1546.27 L 1605.06,1546.27 z" style="fill:#000"/><path id="path242" d="M 1756.24,1455.65 C 1756.56,1488.92 1764.99,1538.58 1782.07,1543.08 L 1782.07,1455.65 L 1756.24,1455.65 z M 1630.59,1450.58 L 1605.06,1450.58 L 1605.06,1360.37 C 1626.19,1367.39 1630.44,1418.57 1630.59,1450.58 L 1630.59,1450.58 L 1630.59,1450.58 z" style="fill:#65bde3"/></g></g></g><text xml:space="preserve" style="font-size:215.6177802px;font-style:normal;font-variant:normal;font-weight:400;font-stretch:normal;text-indent:0;text-align:center;text-decoration:none;line-height:125%;letter-spacing:normal;word-spacing:normal;text-transform:none;direction:ltr;block-progression:tb;writing-mode:lr;text-anchor:middle;fill:#000;fill-opacity:1;fill-rule:nonzero;stroke:none;stroke-width:1px;stroke-linecap:butt;stroke-linejoin:miter;marker:none;marker-start:none;marker-mid:none;marker-end:none;stroke-miterlimit:4;stroke-dasharray:none;stroke-dashoffset:0;stroke-opacity:1;visibility:visible;display:inline;overflow:visible;enable-background:accumulate;font-family:Palatino Linotype;-inkscape-font-specification:Palatino Linotype" id="text2648" x="1194.472" y="2264.662"><tspan id="tspan2650" x="1194.472" y="2264.662">Hold</tspan></text><text xml:space="preserve" style="font-size:215.6177802px;font-style:normal;font-variant:normal;font-weight:400;font-stretch:normal;text-indent:0;text-align:end;text-decoration:none;line-height:125%;letter-spacing:normal;word-spacing:normal;text-transform:none;direction:ltr;block-progression:tb;writing-mode:lr;text-anchor:end;fill:#000;fill-opacity:1;fill-rule:nonzero;stroke:none;stroke-width:1px;stroke-linecap:butt;stroke-linejoin:miter;marker:none;marker-start:none;marker-mid:none;marker-end:none;stroke-miterlimit:4;stroke-dasharray:none;stroke-dashoffset:0;stroke-opacity:1;visibility:visible;display:inline;overflow:visible;enable-background:accumulate;font-family:Palatino Linotype;-inkscape-font-specification:Palatino Linotype" id="text2608" x="638.413" y="207.394"><tspan id="tspan2610" x="638.413" y="207.394">Rewind</tspan></text><text xml:space="preserve" style="font-size:215.6177802px;font-style:normal;font-variant:normal;font-weight:400;font-stretch:normal;text-indent:0;text-align:center;text-decoration:none;line-height:125%;letter-spacing:normal;word-spacing:normal;text-transform:none;direction:ltr;block-progression:tb;writing-mode:lr;text-anchor:middle;fill:#000;fill-opacity:1;fill-rule:nonzero;stroke:none;stroke-width:1px;stroke-linecap:butt;stroke-linejoin:miter;marker:none;marker-start:none;marker-mid:none;marker-end:none;stroke-miterlimit:4;stroke-dasharray:none;stroke-dashoffset:0;stroke-opacity:1;visibility:visible;display:inline;overflow:visible;enable-background:accumulate;font-family:Palatino Linotype;-inkscape-font-specification:Palatino Linotype" id="text2612" x="894.413" y="422.731"><tspan id="tspan2614" x="894.413" y="422.731">Navi</tspan></text><text xml:space="preserve" style="font-size:215.6177802px;font-style:normal;font-variant:normal;font-weight:400;font-stretch:normal;text-indent:0;text-align:start;text-decoration:none;line-height:125%;letter-spacing:normal;word-spacing:normal;text-transform:none;direction:ltr;block-progression:tb;writing-mode:lr;text-anchor:start;fill:#000;fill-opacity:1;fill-rule:nonzero;stroke:none;stroke-width:1px;stroke-linecap:butt;stroke-linejoin:miter;marker:none;marker-start:none;marker-mid:none;marker-end:none;stroke-miterlimit:4;stroke-dasharray:none;stroke-dashoffset:0;stroke-opacity:1;visibility:visible;display:inline;overflow:visible;enable-background:accumulate;font-family:Palatino Linotype;-inkscape-font-specification:Palatino Linotype" id="text2616" x="1157.738" y="206.483"><tspan id="tspan2618" x="1157.738" y="206.483">Forward</tspan></text><path style="fill:none;fill-rule:evenodd;stroke:#000;stroke-width:6.66666698;stroke-linecap:butt;stroke-linejoin:miter;marker-start:url(#Arrow1Lstart);marker-end:url(#Arrow1Lend);stroke-miterlimit:4;stroke-dasharray:none;stroke-opacity:1" id="path4745" d="M 742.22239,166.5368 C 855.58039,96.55342 955.78689,114.24715 1050.804,166.5368"/><text xml:space="preserve" style="font-size:215.6177802px;font-style:normal;font-variant:normal;font-weight:400;font-stretch:normal;text-indent:0;text-align:center;text-decoration:none;line-height:125%;letter-spacing:normal;word-spacing:normal;text-transform:none;direction:ltr;block-progression:tb;writing-mode:lr;text-anchor:middle;fill:#000;fill-opacity:1;fill-rule:nonzero;stroke:none;stroke-width:1px;stroke-linecap:butt;stroke-linejoin:miter;marker:none;marker-start:none;marker-mid:none;marker-end:none;stroke-miterlimit:4;stroke-dasharray:none;stroke-dashoffset:0;stroke-opacity:1;visibility:visible;display:inline;overflow:visible;enable-background:accumulate;font-family:Palatino Linotype;-inkscape-font-specification:Palatino Linotype" id="text2628" x="2628.659" y="2586.022"><tspan id="tspan2632" x="2628.659" y="2586.022">Volume</tspan><tspan id="tspan6394" x="2628.659" y="2919.356">Down</tspan></text><text xml:space="preserve" style="font-size:215.6177802px;font-style:normal;font-variant:normal;font-weight:400;font-stretch:normal;text-indent:0;text-align:center;text-decoration:none;line-height:125%;letter-spacing:normal;word-spacing:normal;text-transform:none;direction:ltr;block-progression:tb;writing-mode:lr;text-anchor:middle;fill:#000;fill-opacity:1;fill-rule:nonzero;stroke:none;stroke-width:1px;stroke-linecap:butt;stroke-linejoin:miter;marker:none;marker-start:none;marker-mid:none;marker-end:none;stroke-miterlimit:4;stroke-dasharray:none;stroke-dashoffset:0;stroke-opacity:1;visibility:visible;display:inline;overflow:visible;enable-background:accumulate;font-family:Palatino Linotype;-inkscape-font-specification:Palatino Linotype" id="text2634" x="4185.66" y="2586.022"><tspan id="tspan2638" x="4185.66" y="2586.022">Volume</tspan><tspan id="tspan6396" x="4185.66" y="2919.356">Up</tspan></text><text xml:space="preserve" style="font-size:215.6177802px;font-style:normal;font-variant:normal;font-weight:400;font-stretch:normal;text-indent:0;text-align:center;text-decoration:none;line-height:125%;letter-spacing:normal;word-spacing:normal;text-transform:none;direction:ltr;block-progression:tb;writing-mode:lr;text-anchor:middle;fill:#000;fill-opacity:1;fill-rule:nonzero;stroke:none;stroke-width:1px;stroke-linecap:butt;stroke-linejoin:miter;marker:none;marker-start:none;marker-mid:none;marker-end:none;stroke-miterlimit:4;stroke-dasharray:none;stroke-dashoffset:0;stroke-opacity:1;visibility:visible;display:inline;overflow:visible;enable-background:accumulate;font-family:Palatino Linotype;-inkscape-font-specification:Palatino Linotype" id="text2640" x="3392.327" y="2353.103"><tspan id="tspan2642" x="3392.327" y="2353.103">A-B</tspan></text><path style="fill:none;fill-rule:evenodd;stroke:#000;stroke-width:6.66666698;stroke-linecap:butt;stroke-linejoin:miter;marker-start:url(#Arrow1Lstart);marker-end:url(#Arrow1Lend);stroke-miterlimit:4;stroke-dasharray:none;stroke-opacity:1" id="path6332" d="M 3249.8736,2444.8221 C 3363.2315,2514.8055 3463.438,2497.1118 3558.4551,2444.8221"/><text xml:space="preserve" style="font-size:215.6177802px;font-style:normal;font-variant:normal;font-weight:400;font-stretch:normal;text-indent:0;text-align:end;text-decoration:none;line-height:125%;letter-spacing:normal;word-spacing:normal;text-transform:none;direction:ltr;block-progression:tb;writing-mode:lr;text-anchor:end;fill:#000;fill-opacity:1;fill-rule:nonzero;stroke:none;stroke-width:1px;stroke-linecap:butt;stroke-linejoin:miter;marker:none;marker-start:none;marker-mid:none;marker-end:none;stroke-miterlimit:4;stroke-dasharray:none;stroke-dashoffset:0;stroke-opacity:1;visibility:visible;display:inline;overflow:visible;enable-background:accumulate;font-family:Palatino Linotype;-inkscape-font-specification:Palatino Linotype" id="text3694" x="3153.582" y="206.483"><tspan id="tspan3696" x="3153.582" y="206.483">Source</tspan></text><text xml:space="preserve" style="font-size:215.6177802px;font-style:normal;font-variant:normal;font-weight:400;font-stretch:normal;text-indent:0;text-align:center;text-decoration:none;line-height:125%;letter-spacing:normal;word-spacing:normal;text-transform:none;direction:ltr;block-progression:tb;writing-mode:lr;text-anchor:middle;fill:#000;fill-opacity:1;fill-rule:nonzero;stroke:none;stroke-width:1px;stroke-linecap:butt;stroke-linejoin:miter;marker:none;marker-start:none;marker-mid:none;marker-end:none;stroke-miterlimit:4;stroke-dasharray:none;stroke-dashoffset:0;stroke-opacity:1;visibility:visible;display:inline;overflow:visible;enable-background:accumulate;font-family:Palatino Linotype;-inkscape-font-specification:Palatino Linotype" id="text3698" x="3409.582" y="422.731"><tspan id="tspan3700" x="3409.582" y="422.731">Rec</tspan></text><text xml:space="preserve" style="font-size:215.6177802px;font-style:normal;font-variant:normal;font-weight:400;font-stretch:normal;text-indent:0;text-align:start;text-decoration:none;line-height:125%;letter-spacing:normal;word-spacing:normal;text-transform:none;direction:ltr;block-progression:tb;writing-mode:lr;text-anchor:start;fill:#000;fill-opacity:1;fill-rule:nonzero;stroke:none;stroke-width:1px;stroke-linecap:butt;stroke-linejoin:miter;marker:none;marker-start:none;marker-mid:none;marker-end:none;stroke-miterlimit:4;stroke-dasharray:none;stroke-dashoffset:0;stroke-opacity:1;visibility:visible;display:inline;overflow:visible;enable-background:accumulate;font-family:Palatino Linotype;-inkscape-font-specification:Palatino Linotype" id="text3702" x="3672.907" y="207.394"><tspan id="tspan3704" x="3672.907" y="207.394">Bitrate</tspan></text><path style="fill:none;fill-rule:evenodd;stroke:#000;stroke-width:6.66666698;stroke-linecap:butt;stroke-linejoin:miter;marker-start:url(#Arrow1Lstart);marker-end:url(#Arrow1Lend);stroke-miterlimit:4;stroke-dasharray:none;stroke-opacity:1" id="path3706" d="M 3257.391,166.5368 C 3370.749,96.55342 3470.9555,114.24715 3565.9726,166.5368"/><text xml:space="preserve" style="font-size:215.6177802px;font-style:normal;font-variant:normal;font-weight:400;font-stretch:normal;text-indent:0;text-align:start;text-decoration:none;line-height:125%;letter-spacing:normal;word-spacing:normal;text-transform:none;direction:ltr;block-progression:tb;writing-mode:lr;text-anchor:start;fill:#000;fill-opacity:1;fill-rule:nonzero;stroke:none;stroke-width:1px;stroke-linecap:butt;stroke-linejoin:miter;marker:none;marker-start:none;marker-mid:none;marker-end:none;stroke-miterlimit:4;stroke-dasharray:none;stroke-dashoffset:0;stroke-opacity:1;visibility:visible;display:inline;overflow:visible;enable-background:accumulate;font-family:Palatino Linotype;-inkscape-font-specification:Palatino Linotype" id="text3737" x="4763.417" y="812.094"><tspan id="tspan3739" x="4763.417" y="812.094">Stop</tspan></text><text xml:space="preserve" style="font-size:215.6177802px;font-style:normal;font-variant:normal;font-weight:400;font-stretch:normal;text-indent:0;text-align:start;text-decoration:none;line-height:125%;letter-spacing:normal;word-spacing:normal;text-transform:none;direction:ltr;block-progression:tb;writing-mode:lr;text-anchor:start;fill:#000;fill-opacity:1;fill-rule:nonzero;stroke:none;stroke-width:1px;stroke-linecap:butt;stroke-linejoin:miter;marker:none;marker-start:none;marker-mid:none;marker-end:none;stroke-miterlimit:4;stroke-dasharray:none;stroke-dashoffset:0;stroke-opacity:1;visibility:visible;display:inline;overflow:visible;enable-background:accumulate;font-family:Palatino Linotype;-inkscape-font-specification:Palatino Linotype" id="text3745" x="4765.109" y="1747.971"><tspan id="tspan3747" x="4765.109" y="1747.971">Play</tspan></text><path id="path22398" d="M 1236.2592,488.1881 L 1675.6835,595.31267" style="fill:none;fill-opacity:.75;fill-rule:evenodd;stroke:#737373;stroke-width:11.7446394;stroke-linecap:butt;stroke-linejoin:miter;stroke-miterlimit:4;stroke-dasharray:none;stroke-opacity:1"/><path id="path5442" d="M 4692.0361,1597.2328 L 3520.2802,1354.6059" style="fill:none;fill-opacity:.75;fill-rule:evenodd;stroke:#737373;stroke-width:11.7446394;stroke-linecap:butt;stroke-linejoin:miter;stroke-miterlimit:4;stroke-dasharray:none;stroke-opacity:1"/><path id="path5444" d="M 4692.0361,719.47547 L 3198.589,991.55447" style="fill:none;fill-opacity:.75;fill-rule:evenodd;stroke:#737373;stroke-width:11.7446394;stroke-linecap:butt;stroke-linejoin:miter;stroke-miterlimit:4;stroke-dasharray:none;stroke-opacity:1"/><path id="path5446" d="M 3186.0023,488.1881 L 2930.0182,595.31267" style="fill:none;fill-opacity:.75;fill-rule:evenodd;stroke:#737373;stroke-width:11.7446394;stroke-linecap:butt;stroke-linejoin:miter;stroke-miterlimit:4;stroke-dasharray:none;stroke-opacity:1"/><path id="path5448" d="M 3186.0023,2142.1088 L 2930.0182,2034.9842" style="fill:none;fill-opacity:.75;fill-rule:evenodd;stroke:#737373;stroke-width:11.7446394;stroke-linecap:butt;stroke-linejoin:miter;stroke-miterlimit:4;stroke-dasharray:none;stroke-opacity:1"/></g></svg>